<mxfile host="app.diagrams.net" modified="2021-01-11T20:48:52.474Z" agent="5.0 (Windows NT 10.0; Win64; x64) AppleWebKit/537.36 (KHTML, like Gecko) Chrome/87.0.4280.88 Safari/537.36" etag="mWMuYl5pDF-tRUtk7JRV" version="14.1.9" type="github" pages="3">
  <diagram id="kGB5FGs5hkhaaStP4H3-" name="CentersPageViewTemplate">
    <mxGraphModel dx="1673" dy="896" grid="1" gridSize="10" guides="1" tooltips="1" connect="1" arrows="1" fold="1" page="1" pageScale="1" pageWidth="850" pageHeight="1100" math="0" shadow="0">
      <root>
        <mxCell id="0" />
        <mxCell id="1" parent="0" />
        <mxCell id="EzMEy4FlxT-D3jvV_UiQ-28" value="" style="group" parent="1" vertex="1" connectable="0">
          <mxGeometry width="530" height="490" as="geometry" />
        </mxCell>
        <mxCell id="EzMEy4FlxT-D3jvV_UiQ-9" value="" style="rounded=0;whiteSpace=wrap;html=1;fillColor=none;fontFamily=Helvetica;" parent="EzMEy4FlxT-D3jvV_UiQ-28" vertex="1">
          <mxGeometry y="64" width="530" height="426" as="geometry" />
        </mxCell>
        <mxCell id="EzMEy4FlxT-D3jvV_UiQ-7" value="" style="rounded=0;whiteSpace=wrap;html=1;fontFamily=Helvetica;fillColor=none;" parent="EzMEy4FlxT-D3jvV_UiQ-28" vertex="1">
          <mxGeometry width="530" height="64" as="geometry" />
        </mxCell>
        <mxCell id="EzMEy4FlxT-D3jvV_UiQ-5" value="Center" style="text;strokeColor=none;fillColor=none;html=1;fontSize=24;fontStyle=1;verticalAlign=middle;align=center;fontFamily=Helvetica;" parent="EzMEy4FlxT-D3jvV_UiQ-28" vertex="1">
          <mxGeometry x="50.476190476190474" y="12" width="126.19047619047619" height="40" as="geometry" />
        </mxCell>
        <mxCell id="EzMEy4FlxT-D3jvV_UiQ-6" value="" style="shape=image;verticalLabelPosition=bottom;verticalAlign=top;aspect=fixed;imageAspect=0;image=data:image/png,iVBORw0KGgoAAAANSUhEUgAAAB4AAAAcCAYAAAB2+A+pAAABOUlEQVRIDe1WQQsBQRT2g10cXJRQDhw47EVxoBz2oBycVpubXKRIDpSzkhSKsm2fdha9zOzuLNZu2Jrt1c6bb773vve1MYT0xELCRZSBDcw7ChLJNOKeK4d8Z4mzRBklGM9Q8wSkl1Ix/krgRLaIVDYnKL8vxgY2iz7aagsNblWREZS6NgUwVQXAZZS4M6xzNfQW23v/WY/Po6bgANo3Ehc0zPcHHA0Axgm7/RLtAvkuuCQVZWVkJcIep5WufAw4r6+fBL4yci61O/uXgZ3FFTAw7Zuf+GXGfsDo3qgCqxiaV98zJ5xlZrq2Mq0dq275YSLccz0YU/fhvfqWzIC5UZTLZQbCz7H7rQNk7D4SVCx+41u1HBj/HnBoPZZT5l/VMgqPhqp3g/qD7QU3TsrgwLxY4veW7Xv76wKbDNBGZ+QR2AAAAABJRU5ErkJggg==;" parent="EzMEy4FlxT-D3jvV_UiQ-28" vertex="1">
          <mxGeometry x="12.619047619047619" y="18" width="30" height="28" as="geometry" />
        </mxCell>
        <mxCell id="EzMEy4FlxT-D3jvV_UiQ-10" value="Acronym :" style="text;html=1;strokeColor=none;fillColor=none;align=left;verticalAlign=middle;whiteSpace=wrap;rounded=0;fontFamily=Helvetica;fontSize=19;" parent="EzMEy4FlxT-D3jvV_UiQ-28" vertex="1">
          <mxGeometry x="25.238095238095237" y="86" width="126.19047619047619" height="20" as="geometry" />
        </mxCell>
        <mxCell id="EzMEy4FlxT-D3jvV_UiQ-11" value="ACE" style="text;html=1;strokeColor=none;fillColor=none;align=center;verticalAlign=middle;whiteSpace=wrap;rounded=0;fontFamily=Helvetica;fontSize=18;fontStyle=1" parent="EzMEy4FlxT-D3jvV_UiQ-28" vertex="1">
          <mxGeometry x="120" y="86" width="50.476190476190474" height="20" as="geometry" />
        </mxCell>
        <mxCell id="EzMEy4FlxT-D3jvV_UiQ-13" value="Ownership" style="html=1;shadow=0;dashed=0;shape=mxgraph.bootstrap.rrect;rSize=5;strokeColor=none;strokeWidth=1;fillColor=none;whiteSpace=wrap;align=center;verticalAlign=middle;spacingLeft=0;fontStyle=0;fontSize=16;spacing=5;" parent="EzMEy4FlxT-D3jvV_UiQ-28" vertex="1">
          <mxGeometry x="411.38095238095235" y="86" width="112.30952380952381" height="20" as="geometry" />
        </mxCell>
        <mxCell id="EzMEy4FlxT-D3jvV_UiQ-14" value="Name :" style="text;html=1;strokeColor=none;fillColor=none;align=left;verticalAlign=middle;whiteSpace=wrap;rounded=0;fontFamily=Helvetica;fontSize=19;" parent="EzMEy4FlxT-D3jvV_UiQ-28" vertex="1">
          <mxGeometry x="25.238095238095237" y="126" width="126.19047619047619" height="20" as="geometry" />
        </mxCell>
        <mxCell id="EzMEy4FlxT-D3jvV_UiQ-15" value="AMBULATORY CENTER FOR ENDOSCOPY, LLC" style="text;html=1;strokeColor=none;fillColor=none;align=center;verticalAlign=middle;whiteSpace=wrap;rounded=0;fontFamily=Helvetica;fontSize=17;fontStyle=1" parent="EzMEy4FlxT-D3jvV_UiQ-28" vertex="1">
          <mxGeometry x="120" y="126" width="389.52" height="20" as="geometry" />
        </mxCell>
        <mxCell id="EzMEy4FlxT-D3jvV_UiQ-16" value="Region :" style="text;html=1;strokeColor=none;fillColor=none;align=left;verticalAlign=middle;whiteSpace=wrap;rounded=0;fontFamily=Helvetica;fontSize=19;" parent="EzMEy4FlxT-D3jvV_UiQ-28" vertex="1">
          <mxGeometry x="25.24" y="170" width="74.76" height="20" as="geometry" />
        </mxCell>
        <mxCell id="EzMEy4FlxT-D3jvV_UiQ-17" value="New York/North NJ" style="text;html=1;strokeColor=none;fillColor=none;align=center;verticalAlign=middle;whiteSpace=wrap;rounded=0;fontFamily=Helvetica;fontSize=17;fontStyle=1" parent="EzMEy4FlxT-D3jvV_UiQ-28" vertex="1">
          <mxGeometry x="120" y="170" width="159.05" height="20" as="geometry" />
        </mxCell>
        <mxCell id="EzMEy4FlxT-D3jvV_UiQ-18" value="" style="shape=image;verticalLabelPosition=bottom;verticalAlign=top;aspect=fixed;imageAspect=0;image=data:image/png,iVBORw0KGgoAAAANSUhEUgAAABkAAAAaCAYAAABCfffNAAABrUlEQVRIDb2Wz2vCMBTH/YN38VBkA/cLlQ3RMWET3EFBpOwH9eKhIF6GyGAIK3OIwhhDZmGI6HaQtch3aENN2toma1khkLwk309e8t6jMfzDF4uaYcxe0aoWEE8kEU/J6EyByCCGruHm4hRxKYkdumXUsBAT82EbV9kjVpiGSPIfIUsTereB3LHj1Iw4mStrghBziqemjNQuh/gamIfyzvsmX2N0lBL2ErziZN15G3MEQIzJC9RVpHhdQ6AtjVrfil3P6JqPuqjl/B6Tw6OMihHJDwpiYvKsopgKKU48LHZNOwUtiP6AAk+kBF4R8XC/jt7SZqyi6xNqlsN9XoCUxMn994ZgPfwAFdGo8QMmqnj8YRhWngzu0j4ZK+blQWPMEjYhbGIy1NBq3KIib2/Fs6DDXKI1czHEMl5vFnw9lq4HbsLGE885l9Efkofy4dqyNlB54r2AtvpCyhoMejHVjwiSRm1IqTq60UBIIXRo28NIIHQJsZWpTngIVQgpXaYbGpJrsyWEUScDIQj6dUh0SXEUQi/AyiYGwQI9hfzuHJagvC226TJ2QQizl3vwC/aQgNbfP9u8AAAAAElFTkSuQmCC;" parent="EzMEy4FlxT-D3jvV_UiQ-28" vertex="1">
          <mxGeometry x="25.238095238095237" y="247" width="25" height="26" as="geometry" />
        </mxCell>
        <mxCell id="EzMEy4FlxT-D3jvV_UiQ-19" value="&lt;font style=&quot;font-size: 23px&quot;&gt;Locations&lt;/font&gt;" style="text;html=1;strokeColor=none;fillColor=none;align=left;verticalAlign=middle;whiteSpace=wrap;rounded=0;fontFamily=Helvetica;fontSize=19;" parent="EzMEy4FlxT-D3jvV_UiQ-28" vertex="1">
          <mxGeometry x="75.71428571428571" y="247" width="126.19047619047619" height="20" as="geometry" />
        </mxCell>
        <mxCell id="EzMEy4FlxT-D3jvV_UiQ-21" value="&lt;font style=&quot;font-size: 17px&quot;&gt;Location 1&lt;/font&gt;" style="text;html=1;strokeColor=none;fillColor=none;align=left;verticalAlign=middle;whiteSpace=wrap;rounded=0;fontFamily=Helvetica;fontSize=19;" parent="EzMEy4FlxT-D3jvV_UiQ-28" vertex="1">
          <mxGeometry x="25.238095238095237" y="286" width="126.19047619047619" height="20" as="geometry" />
        </mxCell>
        <mxCell id="EzMEy4FlxT-D3jvV_UiQ-22" value="7600 River Road&lt;br&gt;4th Floor&lt;br&gt;North Bergen, NJ 07047&lt;br&gt;US" style="text;html=1;strokeColor=none;fillColor=none;align=left;verticalAlign=middle;whiteSpace=wrap;rounded=0;fontFamily=Helvetica;fontSize=17;fontStyle=1" parent="EzMEy4FlxT-D3jvV_UiQ-28" vertex="1">
          <mxGeometry x="151.42857142857142" y="286" width="252.38095238095238" height="80" as="geometry" />
        </mxCell>
        <mxCell id="EzMEy4FlxT-D3jvV_UiQ-23" value="" style="shape=image;verticalLabelPosition=bottom;verticalAlign=top;aspect=fixed;imageAspect=0;image=data:image/png,iVBORw0KGgoAAAANSUhEUgAAABAAAAAOCAYAAAAmL5yKAAABIUlEQVQ4EWP4/////1dXzv4/eowIfO7B/49/QDoQgOHjno7/Jrq2/+WJxCZTriB0////n+HV+lKwZhu/6v8t87f837e+738gPsMyt/x/hWQE3IDJ52Cin/9vL8bjIlwGdJ+EGfD//4/Dfbi9hMuAyKUPICa8Pv6/O9SZdAPk3Rf+vwIK4Re7/+eZk+EFUCykr3kGdsWPc1PgAWnjl/TfGdlAXF6ARGPM/8nnfkIMub3lf0vz7v+PQK768/n/7QNT/ieAYge/Abb/5c2T/ncfeIsIURjr08H/tUQZAE4Dzv+dcxb+33fv7f8fsJR3bgokwRF0AZZEZOKS9D/QFhqwZQf/f4S5CpQS/784+L8lLel/ZAQxOP//LGgYwcxggDHIpQFcZ2XYdV7E/wAAAABJRU5ErkJggg==;" parent="EzMEy4FlxT-D3jvV_UiQ-28" vertex="1">
          <mxGeometry x="151.42857142857142" y="366" width="16" height="14" as="geometry" />
        </mxCell>
        <mxCell id="EzMEy4FlxT-D3jvV_UiQ-24" value="201-705-1080" style="html=1;shadow=0;dashed=0;shape=mxgraph.bootstrap.rrect;rSize=5;strokeColor=none;strokeWidth=1;fillColor=none;whiteSpace=wrap;align=center;verticalAlign=middle;spacingLeft=0;fontStyle=1;fontSize=16;spacing=5;" parent="EzMEy4FlxT-D3jvV_UiQ-28" vertex="1">
          <mxGeometry x="159.99666666666667" y="363" width="138.8095238095238" height="20" as="geometry" />
        </mxCell>
        <mxCell id="EzMEy4FlxT-D3jvV_UiQ-25" value="" style="shape=image;verticalLabelPosition=bottom;verticalAlign=top;aspect=fixed;imageAspect=0;image=data:image/png,iVBORw0KGgoAAAANSUhEUgAAAA8AAAASCAYAAACEnoQPAAABQ0lEQVQ4EaWTPWvCUBSG80/8BW6FTpkyCF1KB4vBTllSF50cM0gHwWIXHYpO3TqU1kFw9gdkCAS6FywiiKShoFB4yklMTEjjBw2ckHvPfc57PnIV/vEoKfbbx1vl2SZ1VBYJ2KV3rlIo5pmG3ndZJ0KkYQFLTe77QwaxPVAvRQE1zJfPGM/CtTGL2C0fS0a1CFYpdN3Yq1gVA/NuysePS0+UMzCsv3y891dM8SfhsMYmo3k+HEjNxyGs3jJwwuYpGTi3YbvUzbdlEO9vWL1BrxhcqQJoaGUDvXzJ2Tbwfnhbl90VWEoCorSLKvvhaisYlVUV+Jp6e8ig3eTiKOUDde9XtqYsVksmligbPDk+nvOMfpRyxw66aXcEbjCaAbPtqA7WfGzauz9sg/3YCEYkY8q3FhPJJH2rwo1T3omLcQoWnv0FNWz/QQAMhU8AAAAASUVORK5CYII=;" parent="EzMEy4FlxT-D3jvV_UiQ-28" vertex="1">
          <mxGeometry x="151.42857142857142" y="383" width="15" height="18" as="geometry" />
        </mxCell>
        <mxCell id="EzMEy4FlxT-D3jvV_UiQ-26" value="201-705-1090" style="text;html=1;strokeColor=none;fillColor=none;align=left;verticalAlign=middle;whiteSpace=wrap;rounded=0;fontFamily=Helvetica;fontSize=17;fontStyle=1" parent="EzMEy4FlxT-D3jvV_UiQ-28" vertex="1">
          <mxGeometry x="180.45238095238093" y="382" width="138.8095238095238" height="20" as="geometry" />
        </mxCell>
        <mxCell id="EzMEy4FlxT-D3jvV_UiQ-27" value="" style="shape=image;verticalLabelPosition=bottom;verticalAlign=top;aspect=fixed;imageAspect=0;image=data:image/png,iVBORw0KGgoAAAANSUhEUgAAABEAAAASCAYAAAC9+TVUAAABo0lEQVQ4Ea2SP2vCQBjG/SZ+AjfBycmh1EFwaGlXF1soOulShI6FUhczlDplEBSKkSJIqUgzWHBIpoBgodiAIopIDEICwlMuucufaoqDB8fd+9x7v/c57g3hCCN0BAZ2IVsd6ocIZW1C4jKIxjKoyDrUbhv92f6SfshaQuUsgeTTCMZnGdFIHGEyUzyUxTuKkVMUG2MYf1guZKOgkiKXElblXpECLJBXSyAnTH0YCjEhPZ7bVSNl9DcSHpgLul7WxlBf8jTnCvVvl+M4MVY6NGuawNake6bp0Dbw65432ZABRyvEEb5uYy57YuaI6EMeSRaf8FCoGQsyFwqHQWZtZBkkwkHyQV4PhEz+geBHxDNXtWdDgeaNg3SS53UCLCHVKIQToRojdNhltnan0OSmU6wzNJ3vcX9H5pC23ptHazJG/cLbJ3GU3nQoVdoGpPm2DsPf9qpQsLo0KyzdCxb4Fp0VBafu0Zu4ALJznDBZG/DI3TShLkSUYrabNKdAk6vI3rXxtWaZ7roDsY62JgzSTDMJLUGBRmLSbAFjPyQgOUg+CuQX9OXkpv7eSNIAAAAASUVORK5CYII=;" parent="EzMEy4FlxT-D3jvV_UiQ-28" vertex="1">
          <mxGeometry x="150.16666666666666" y="406" width="17" height="18" as="geometry" />
        </mxCell>
        <mxCell id="WC42uYxIy4kpV12cu9x1-1" value="" style="group" parent="1" vertex="1" connectable="0">
          <mxGeometry x="540" width="420" height="490" as="geometry" />
        </mxCell>
        <mxCell id="WC42uYxIy4kpV12cu9x1-2" value="" style="rounded=0;whiteSpace=wrap;html=1;fontFamily=Helvetica;fillColor=none;" parent="WC42uYxIy4kpV12cu9x1-1" vertex="1">
          <mxGeometry width="420" height="64" as="geometry" />
        </mxCell>
        <mxCell id="WC42uYxIy4kpV12cu9x1-3" value="" style="rounded=0;whiteSpace=wrap;html=1;fillColor=none;fontFamily=Helvetica;" parent="WC42uYxIy4kpV12cu9x1-1" vertex="1">
          <mxGeometry y="64" width="420" height="426" as="geometry" />
        </mxCell>
        <mxCell id="WC42uYxIy4kpV12cu9x1-4" value="" style="shape=image;verticalLabelPosition=bottom;verticalAlign=top;aspect=fixed;imageAspect=0;image=data:image/png,iVBORw0KGgoAAAANSUhEUgAAACEAAAAXCAYAAACFxybfAAACTElEQVRIDdWW0WvaQBzH/YN9yUOQhYZViSVSutIM0jEfovQhUIst4oOQPhQRGUipMGV0tApKKxtSECFCQ/mOy12SSxpdhDBcQHJeLnef+/5+v+8lgx24MjvAgP8Ewh6iUpCRFb1fHqr1jFcA9o8mlA9eP3cv1NC3k2u8WQl7iPI+N7lYxGnvxZ193juD6IPxY1h730wMsh4iCpAroXK3BOBgaukQNgF4zxKCZGaWxklNdmGiDyDUn9NRH68ArDBq6JHxMrJ7JUh7MWqIMhTrN4Ahyh4Yu9N+GrJEEGqbKLBC3yy9BzhuYUTi/3SNj5GFSB6lBKGh9YtspvYOQDi5weyNZGg0eQNV0oX4eRlKRNG4xZwAEIbvNUi5YOGgklJTQoYXjkFdh6RoOGrew63A2TecWxO3/frUgRaqJAqVkhIysiQxH0heBNfioQWV7V780sHUIZJMUD/Jh8KWHgRLOOHgK8qmiaOD8EKu/AUTXWIhb0sMLj75IKlD8LGObfulDMx7ppsn/x7CVawIrU1tneTJeTexTxjo2sDoivhAjFnF1H+sEtw4qRpUj2dW0tUEsG+h+f5Bc4yZVRFqtQZNJRlNIRbDa5Q/x5gTt9DfQMT6hGUyc0zVQKWqu6VOwxSC8Go8D6Xx6J6Q9PEam04IIl48MggH9w0tdN6EINiojbdZxwgZ1SYFxEONjt3iOF9/ikawFnfrXdGHOmY27jicmpGJYv4mhiDv2uMbnCrUIwTlDK3xEtO24ZaicNjEYIsPGZ5lKwj+xTTbOwHxB846o1NlRbbAAAAAAElFTkSuQmCC;" parent="WC42uYxIy4kpV12cu9x1-1" vertex="1">
          <mxGeometry x="20" y="20.5" width="33" height="23" as="geometry" />
        </mxCell>
        <mxCell id="WC42uYxIy4kpV12cu9x1-5" value="Services (Beta)" style="text;strokeColor=none;fillColor=none;html=1;fontSize=24;fontStyle=1;verticalAlign=middle;align=center;fontFamily=Helvetica;" parent="WC42uYxIy4kpV12cu9x1-1" vertex="1">
          <mxGeometry x="53" y="12" width="117" height="40" as="geometry" />
        </mxCell>
        <mxCell id="WC42uYxIy4kpV12cu9x1-13" value="Service Exp Date:" style="text;html=1;strokeColor=none;fillColor=none;align=left;verticalAlign=middle;whiteSpace=wrap;rounded=0;fontFamily=Helvetica;fontSize=19;" parent="WC42uYxIy4kpV12cu9x1-1" vertex="1">
          <mxGeometry x="20" y="300" width="160" height="20" as="geometry" />
        </mxCell>
        <mxCell id="WC42uYxIy4kpV12cu9x1-16" value="9/30/2027" style="text;html=1;strokeColor=none;fillColor=none;align=center;verticalAlign=middle;whiteSpace=wrap;rounded=0;fontFamily=Helvetica;fontSize=18;fontStyle=1" parent="WC42uYxIy4kpV12cu9x1-1" vertex="1">
          <mxGeometry x="180" y="300" width="90" height="20" as="geometry" />
        </mxCell>
        <mxCell id="awF88WQ74zQiAIKUVne8-4" value="" style="group" parent="WC42uYxIy4kpV12cu9x1-1" vertex="1" connectable="0">
          <mxGeometry x="20" y="80" width="200" height="20" as="geometry" />
        </mxCell>
        <mxCell id="WC42uYxIy4kpV12cu9x1-17" value="Human Resources" style="text;html=1;strokeColor=none;fillColor=none;align=left;verticalAlign=middle;whiteSpace=wrap;rounded=0;fontFamily=Helvetica;fontSize=17;" parent="awF88WQ74zQiAIKUVne8-4" vertex="1">
          <mxGeometry x="30" width="170" height="20" as="geometry" />
        </mxCell>
        <mxCell id="awF88WQ74zQiAIKUVne8-1" value="" style="shape=image;verticalLabelPosition=bottom;verticalAlign=top;aspect=fixed;imageAspect=0;image=data:image/png,iVBORw0KGgoAAAANSUhEUgAAABMAAAAUCAYAAABvVQZ0AAABqklEQVQ4Ea2UP2vCQBjG7+N0y+Q3qNNNTk6ubpLJD1AXcSgIHcQPUBSjSBQcAg7iEDoFh1YElxKpg7agaekFCk+53KVJzkShbSCQe+99f3neP3cEFx528HB883A8+Bc8AZLmsVuaaIyKyHXyuEq8FHR0i/5ymxamwPYPaA1pBOgWURhUUZvWURmUQLsRPDdsw94nmZEy10BZqggc3fS02Ev8hzr6bgQUsI0pQRQV+znaPfPl2lVZBh39jXAkwBZjk6dGUbbTa5HFdG0dWicPzTSxA0DYoi4M4ymOWVGq/d0D++LGV1hjIaS28EFmE17UAlorNSJjLWtLLQeMu6zauOa1nsxBmvyj18ZTRmzCHGsST80N1D2i1eOC7kCCDk7m4i8ykn0mEGKRAN1j7YU+PkR2uoRZjtzxsJ7r0IwbWLJDwUYCZECdGsfiykJYqOzDQdOQg2nUMeNDeQEExJSd1Mxz0PgBllCQg6yZp4pEOrGapXYzDgzmKAukdDNzziQwWxHXpczZ2RPg+2DpR1T0RT0BgfX/zqYoY7xrf7s1JA//dp+FQAC/vWm/AUVO97xVB2fNAAAAAElFTkSuQmCC;" parent="awF88WQ74zQiAIKUVne8-4" vertex="1">
          <mxGeometry width="19" height="20" as="geometry" />
        </mxCell>
        <mxCell id="awF88WQ74zQiAIKUVne8-5" value="" style="group" parent="WC42uYxIy4kpV12cu9x1-1" vertex="1" connectable="0">
          <mxGeometry x="20" y="110" width="200" height="20" as="geometry" />
        </mxCell>
        <mxCell id="awF88WQ74zQiAIKUVne8-6" value="Finance" style="text;html=1;strokeColor=none;fillColor=none;align=left;verticalAlign=middle;whiteSpace=wrap;rounded=0;fontFamily=Helvetica;fontSize=17;" parent="awF88WQ74zQiAIKUVne8-5" vertex="1">
          <mxGeometry x="30" width="170" height="20" as="geometry" />
        </mxCell>
        <mxCell id="awF88WQ74zQiAIKUVne8-7" value="" style="shape=image;verticalLabelPosition=bottom;verticalAlign=top;aspect=fixed;imageAspect=0;image=data:image/png,iVBORw0KGgoAAAANSUhEUgAAABMAAAAUCAYAAABvVQZ0AAABqklEQVQ4Ea2UP2vCQBjG7+N0y+Q3qNNNTk6ubpLJD1AXcSgIHcQPUBSjSBQcAg7iEDoFh1YElxKpg7agaekFCk+53KVJzkShbSCQe+99f3neP3cEFx528HB883A8+Bc8AZLmsVuaaIyKyHXyuEq8FHR0i/5ymxamwPYPaA1pBOgWURhUUZvWURmUQLsRPDdsw94nmZEy10BZqggc3fS02Ev8hzr6bgQUsI0pQRQV+znaPfPl2lVZBh39jXAkwBZjk6dGUbbTa5HFdG0dWicPzTSxA0DYoi4M4ymOWVGq/d0D++LGV1hjIaS28EFmE17UAlorNSJjLWtLLQeMu6zauOa1nsxBmvyj18ZTRmzCHGsST80N1D2i1eOC7kCCDk7m4i8ykn0mEGKRAN1j7YU+PkR2uoRZjtzxsJ7r0IwbWLJDwUYCZECdGsfiykJYqOzDQdOQg2nUMeNDeQEExJSd1Mxz0PgBllCQg6yZp4pEOrGapXYzDgzmKAukdDNzziQwWxHXpczZ2RPg+2DpR1T0RT0BgfX/zqYoY7xrf7s1JA//dp+FQAC/vWm/AUVO97xVB2fNAAAAAElFTkSuQmCC;" parent="awF88WQ74zQiAIKUVne8-5" vertex="1">
          <mxGeometry width="19" height="20" as="geometry" />
        </mxCell>
        <mxCell id="awF88WQ74zQiAIKUVne8-8" value="" style="group" parent="WC42uYxIy4kpV12cu9x1-1" vertex="1" connectable="0">
          <mxGeometry x="20" y="140" width="200" height="20" as="geometry" />
        </mxCell>
        <mxCell id="awF88WQ74zQiAIKUVne8-9" value="Payor Contracting" style="text;html=1;strokeColor=none;fillColor=none;align=left;verticalAlign=middle;whiteSpace=wrap;rounded=0;fontFamily=Helvetica;fontSize=17;" parent="awF88WQ74zQiAIKUVne8-8" vertex="1">
          <mxGeometry x="30" width="170" height="20" as="geometry" />
        </mxCell>
        <mxCell id="awF88WQ74zQiAIKUVne8-10" value="" style="shape=image;verticalLabelPosition=bottom;verticalAlign=top;aspect=fixed;imageAspect=0;image=data:image/png,iVBORw0KGgoAAAANSUhEUgAAABMAAAAUCAYAAABvVQZ0AAABqklEQVQ4Ea2UP2vCQBjG7+N0y+Q3qNNNTk6ubpLJD1AXcSgIHcQPUBSjSBQcAg7iEDoFh1YElxKpg7agaekFCk+53KVJzkShbSCQe+99f3neP3cEFx528HB883A8+Bc8AZLmsVuaaIyKyHXyuEq8FHR0i/5ymxamwPYPaA1pBOgWURhUUZvWURmUQLsRPDdsw94nmZEy10BZqggc3fS02Ev8hzr6bgQUsI0pQRQV+znaPfPl2lVZBh39jXAkwBZjk6dGUbbTa5HFdG0dWicPzTSxA0DYoi4M4ymOWVGq/d0D++LGV1hjIaS28EFmE17UAlorNSJjLWtLLQeMu6zauOa1nsxBmvyj18ZTRmzCHGsST80N1D2i1eOC7kCCDk7m4i8ykn0mEGKRAN1j7YU+PkR2uoRZjtzxsJ7r0IwbWLJDwUYCZECdGsfiykJYqOzDQdOQg2nUMeNDeQEExJSd1Mxz0PgBllCQg6yZp4pEOrGapXYzDgzmKAukdDNzziQwWxHXpczZ2RPg+2DpR1T0RT0BgfX/zqYoY7xrf7s1JA//dp+FQAC/vWm/AUVO97xVB2fNAAAAAElFTkSuQmCC;" parent="awF88WQ74zQiAIKUVne8-8" vertex="1">
          <mxGeometry width="19" height="20" as="geometry" />
        </mxCell>
        <mxCell id="awF88WQ74zQiAIKUVne8-11" value="" style="group" parent="WC42uYxIy4kpV12cu9x1-1" vertex="1" connectable="0">
          <mxGeometry x="20" y="170" width="200" height="20" as="geometry" />
        </mxCell>
        <mxCell id="awF88WQ74zQiAIKUVne8-12" value="Billing" style="text;html=1;strokeColor=none;fillColor=none;align=left;verticalAlign=middle;whiteSpace=wrap;rounded=0;fontFamily=Helvetica;fontSize=17;" parent="awF88WQ74zQiAIKUVne8-11" vertex="1">
          <mxGeometry x="30" width="170" height="20" as="geometry" />
        </mxCell>
        <mxCell id="awF88WQ74zQiAIKUVne8-13" value="" style="shape=image;verticalLabelPosition=bottom;verticalAlign=top;aspect=fixed;imageAspect=0;image=data:image/png,iVBORw0KGgoAAAANSUhEUgAAABMAAAAUCAYAAABvVQZ0AAABqklEQVQ4Ea2UP2vCQBjG7+N0y+Q3qNNNTk6ubpLJD1AXcSgIHcQPUBSjSBQcAg7iEDoFh1YElxKpg7agaekFCk+53KVJzkShbSCQe+99f3neP3cEFx528HB883A8+Bc8AZLmsVuaaIyKyHXyuEq8FHR0i/5ymxamwPYPaA1pBOgWURhUUZvWURmUQLsRPDdsw94nmZEy10BZqggc3fS02Ev8hzr6bgQUsI0pQRQV+znaPfPl2lVZBh39jXAkwBZjk6dGUbbTa5HFdG0dWicPzTSxA0DYoi4M4ymOWVGq/d0D++LGV1hjIaS28EFmE17UAlorNSJjLWtLLQeMu6zauOa1nsxBmvyj18ZTRmzCHGsST80N1D2i1eOC7kCCDk7m4i8ykn0mEGKRAN1j7YU+PkR2uoRZjtzxsJ7r0IwbWLJDwUYCZECdGsfiykJYqOzDQdOQg2nUMeNDeQEExJSd1Mxz0PgBllCQg6yZp4pEOrGapXYzDgzmKAukdDNzziQwWxHXpczZ2RPg+2DpR1T0RT0BgfX/zqYoY7xrf7s1JA//dp+FQAC/vWm/AUVO97xVB2fNAAAAAElFTkSuQmCC;" parent="awF88WQ74zQiAIKUVne8-11" vertex="1">
          <mxGeometry width="19" height="20" as="geometry" />
        </mxCell>
        <mxCell id="awF88WQ74zQiAIKUVne8-14" value="" style="group" parent="WC42uYxIy4kpV12cu9x1-1" vertex="1" connectable="0">
          <mxGeometry x="20" y="200" width="200" height="20" as="geometry" />
        </mxCell>
        <mxCell id="awF88WQ74zQiAIKUVne8-15" value="Operations" style="text;html=1;strokeColor=none;fillColor=none;align=left;verticalAlign=middle;whiteSpace=wrap;rounded=0;fontFamily=Helvetica;fontSize=17;" parent="awF88WQ74zQiAIKUVne8-14" vertex="1">
          <mxGeometry x="30" width="170" height="20" as="geometry" />
        </mxCell>
        <mxCell id="awF88WQ74zQiAIKUVne8-16" value="" style="shape=image;verticalLabelPosition=bottom;verticalAlign=top;aspect=fixed;imageAspect=0;image=data:image/png,iVBORw0KGgoAAAANSUhEUgAAABMAAAAUCAYAAABvVQZ0AAABqklEQVQ4Ea2UP2vCQBjG7+N0y+Q3qNNNTk6ubpLJD1AXcSgIHcQPUBSjSBQcAg7iEDoFh1YElxKpg7agaekFCk+53KVJzkShbSCQe+99f3neP3cEFx528HB883A8+Bc8AZLmsVuaaIyKyHXyuEq8FHR0i/5ymxamwPYPaA1pBOgWURhUUZvWURmUQLsRPDdsw94nmZEy10BZqggc3fS02Ev8hzr6bgQUsI0pQRQV+znaPfPl2lVZBh39jXAkwBZjk6dGUbbTa5HFdG0dWicPzTSxA0DYoi4M4ymOWVGq/d0D++LGV1hjIaS28EFmE17UAlorNSJjLWtLLQeMu6zauOa1nsxBmvyj18ZTRmzCHGsST80N1D2i1eOC7kCCDk7m4i8ykn0mEGKRAN1j7YU+PkR2uoRZjtzxsJ7r0IwbWLJDwUYCZECdGsfiykJYqOzDQdOQg2nUMeNDeQEExJSd1Mxz0PgBllCQg6yZp4pEOrGapXYzDgzmKAukdDNzziQwWxHXpczZ2RPg+2DpR1T0RT0BgfX/zqYoY7xrf7s1JA//dp+FQAC/vWm/AUVO97xVB2fNAAAAAElFTkSuQmCC;" parent="awF88WQ74zQiAIKUVne8-14" vertex="1">
          <mxGeometry width="19" height="20" as="geometry" />
        </mxCell>
        <mxCell id="awF88WQ74zQiAIKUVne8-17" value="" style="group" parent="WC42uYxIy4kpV12cu9x1-1" vertex="1" connectable="0">
          <mxGeometry x="20" y="230" width="220" height="20" as="geometry" />
        </mxCell>
        <mxCell id="awF88WQ74zQiAIKUVne8-18" value="Information Technology" style="text;html=1;strokeColor=none;fillColor=none;align=left;verticalAlign=middle;whiteSpace=wrap;rounded=0;fontFamily=Helvetica;fontSize=17;" parent="awF88WQ74zQiAIKUVne8-17" vertex="1">
          <mxGeometry x="30" width="190" height="20" as="geometry" />
        </mxCell>
        <mxCell id="awF88WQ74zQiAIKUVne8-19" value="" style="shape=image;verticalLabelPosition=bottom;verticalAlign=top;aspect=fixed;imageAspect=0;image=data:image/png,iVBORw0KGgoAAAANSUhEUgAAABMAAAAUCAYAAABvVQZ0AAABqklEQVQ4Ea2UP2vCQBjG7+N0y+Q3qNNNTk6ubpLJD1AXcSgIHcQPUBSjSBQcAg7iEDoFh1YElxKpg7agaekFCk+53KVJzkShbSCQe+99f3neP3cEFx528HB883A8+Bc8AZLmsVuaaIyKyHXyuEq8FHR0i/5ymxamwPYPaA1pBOgWURhUUZvWURmUQLsRPDdsw94nmZEy10BZqggc3fS02Ev8hzr6bgQUsI0pQRQV+znaPfPl2lVZBh39jXAkwBZjk6dGUbbTa5HFdG0dWicPzTSxA0DYoi4M4ymOWVGq/d0D++LGV1hjIaS28EFmE17UAlorNSJjLWtLLQeMu6zauOa1nsxBmvyj18ZTRmzCHGsST80N1D2i1eOC7kCCDk7m4i8ykn0mEGKRAN1j7YU+PkR2uoRZjtzxsJ7r0IwbWLJDwUYCZECdGsfiykJYqOzDQdOQg2nUMeNDeQEExJSd1Mxz0PgBllCQg6yZp4pEOrGapXYzDgzmKAukdDNzziQwWxHXpczZ2RPg+2DpR1T0RT0BgfX/zqYoY7xrf7s1JA//dp+FQAC/vWm/AUVO97xVB2fNAAAAAElFTkSuQmCC;" parent="awF88WQ74zQiAIKUVne8-17" vertex="1">
          <mxGeometry width="19" height="20" as="geometry" />
        </mxCell>
        <mxCell id="bMP9wcc5td6lPZqefCp2-3" value="" style="group" parent="WC42uYxIy4kpV12cu9x1-1" vertex="1" connectable="0">
          <mxGeometry x="20" y="260" width="220" height="21" as="geometry" />
        </mxCell>
        <mxCell id="bMP9wcc5td6lPZqefCp2-1" value="" style="shape=image;verticalLabelPosition=bottom;verticalAlign=top;aspect=fixed;imageAspect=0;image=data:image/png,iVBORw0KGgoAAAANSUhEUgAAABQAAAAVCAYAAABG1c6oAAABiUlEQVQ4Ea2VMWvCQBiG/VOdnTIFhA7ipL9AEIRs7rp0sUv9DZ0iCC5OLjplapaahp6StDatraGWA8NbPu+SXKrFFi4Qcrm899z3vffdpYQ/XHwbY7eJsdtyJGf0pd++x44NZtWwuDB+3CY86wqBE2J/YvARMInmWDbNHGLU4DUssJsu/EYdnqFM0BzgJSpSC8A9u4VflgNIzPjJKHigTFpuIWA5NAMmgS1hJvzh40lQPky03oeWyISggeiTwBBhm9IkWHjWeBX8MWwJaNtGDOAA5LOu6OxM8JmpY2zG9pFH5HEwvsdXpnvFU0cEw2acgBzrHvl2iZWbqRCP5MzVLtbS+CSaglVJa8IfhZk4cQfwqBp6UwI6WNJCVAZ4yyRAPtjAgqDuRMLke2F177CqGFiUr1HCs40HSecKkJoFaFqPSsS5PM2ypQD7Tv5dae3TdA7AesEWRYaoT1aowN4UeiLU7qH+VQY01yFZq3mnEFLzXhYFoPW0SWtK63mYQump7cRWoWn7P/+Ub7tXqg4pdsJpAAAAAElFTkSuQmCC;" parent="bMP9wcc5td6lPZqefCp2-3" vertex="1">
          <mxGeometry width="20" height="21" as="geometry" />
        </mxCell>
        <mxCell id="bMP9wcc5td6lPZqefCp2-2" value="Benefit Verification" style="text;html=1;strokeColor=none;fillColor=none;align=left;verticalAlign=middle;whiteSpace=wrap;rounded=0;fontFamily=Helvetica;fontSize=17;" parent="bMP9wcc5td6lPZqefCp2-3" vertex="1">
          <mxGeometry x="30" width="190" height="20" as="geometry" />
        </mxCell>
        <mxCell id="LuQFNOb3zqsS7Iwwz5Gg-1" value="" style="shape=image;verticalLabelPosition=bottom;verticalAlign=top;aspect=fixed;imageAspect=0;image=data:image/png,iVBORw0KGgoAAAANSUhEUgAAACcAAAAmCAYAAABH/4KQAAAB40lEQVRYCe3Yv2vCQBTA8fwZrv4J/RcyOjrmX3B0DMGlHQTH0qlrJ2e3Kk6KFISOIhU3S5fiUKRD+ZbTnr3E/Lgkd1FoA/IIickn7949Lzpc8OZcsI1/XNHROWvmVlNodMDpQHt6+ghnw63GUPfBUT7eYxh4FlwcTCJVYPW4D2gH4YxJmIzeAHYQnq27NbS76V+UF9CKAQw/w0Ml9nYLaGQAewsVt4VWxhe0QEoNuf1DBgRoNYLaDUxESjSAzZGC24wNZsyHE5hEawJDmdsIqbxAyZgIk9fNAJ7UXBQn0lp22w+lBEVjAjB2tprGpcIkVAWu4f4pnI5jKzGJ04LFAMM0dUJEaq7osOaC/QBbsyjrsG80c0VgXkptG8OZhoncGcHZgBnB2YKVxtmElcLZhhXGlYXNRzB8FbdP3wpNiOucqxe1XUz6UPNBp4/mx32BL7u7RoyDiQWGHdwbNDVQAqDC3meHjMmVjx3cEq40cCpMVFaR3+78w/qcve6LwirDRTMgh0nGOFhlOJbgitkagNsF9w56fbgV7eEluTVEH8pOzSXfP/XI38HJGrIV8w2r4VfDrIfyxqlVsD94bCVYeKlOBAYw2ObBibdw039HxDTrehce1tkwccZv5vTOr/Ssi8Z9A3eUzdGXStlVAAAAAElFTkSuQmCC;" parent="1" vertex="1">
          <mxGeometry x="370" y="13" width="39" height="38" as="geometry" />
        </mxCell>
        <mxCell id="CaGocbQFJ1UNbeWpH9l7-1" value="" style="group" parent="1" vertex="1" connectable="0">
          <mxGeometry x="1590" width="420" height="490" as="geometry" />
        </mxCell>
        <mxCell id="CaGocbQFJ1UNbeWpH9l7-2" value="" style="rounded=0;whiteSpace=wrap;html=1;fontFamily=Helvetica;fillColor=none;" parent="CaGocbQFJ1UNbeWpH9l7-1" vertex="1">
          <mxGeometry width="420" height="64" as="geometry" />
        </mxCell>
        <mxCell id="CaGocbQFJ1UNbeWpH9l7-3" value="" style="rounded=0;whiteSpace=wrap;html=1;fillColor=none;fontFamily=Helvetica;" parent="CaGocbQFJ1UNbeWpH9l7-1" vertex="1">
          <mxGeometry y="64" width="420" height="426" as="geometry" />
        </mxCell>
        <mxCell id="CaGocbQFJ1UNbeWpH9l7-5" value="Key Contacts" style="text;strokeColor=none;fillColor=none;html=1;fontSize=24;fontStyle=1;verticalAlign=middle;align=center;fontFamily=Helvetica;" parent="CaGocbQFJ1UNbeWpH9l7-1" vertex="1">
          <mxGeometry x="53" y="12" width="157" height="40" as="geometry" />
        </mxCell>
        <mxCell id="iPOJ5_r_zSc3D9zY44-e-1" value="" style="shape=image;verticalLabelPosition=bottom;verticalAlign=top;aspect=fixed;imageAspect=0;image=data:image/png,iVBORw0KGgoAAAANSUhEUgAAABYAAAAdCAYAAACuc5z4AAABZ0lEQVRIDdXUz0sCQRjG8f2DvXQYpEDQ0EAED14KJRAkpA5e8mAHwSREkKgoCbsESrsk4XElRb7hj2GRfde0doIWhoFl9rPvvjPPWhi6LEMum+HpiE4lTzKeIKJiRFQClclzcTti8k1FwbDTJhefY/JQJ22cWbAuw26XwgZUv0yVurgBtgg/nacCK9Xock5x9izLAtyjGJU/fx1drSn3RNkPvzdIBvRVhDMNHIH+QxhTrQAMbR5g6rgt9sJIQPQuG4m0xn84+47bxLXp3T3QadaotPt8fPrlyahPq1qjPl/3YuNO/Ws8eGpTz6fFKO/F0xwkl0PtC6mMpsk17bU/3hJ2uxQPhQd2SaCKcVD2fkoWjGmd/h7VcT/ujBd9sXitonasTCPifFRjAFjOVVbsq/jQVgVkuXTAui+F1wZdTOHxX8KDavg9rryBxWzIdUAwdM+2nudBuRmujps/jaHc8SIdCuchxuAv22r1h/kzptIAAAAASUVORK5CYII=;" parent="CaGocbQFJ1UNbeWpH9l7-1" vertex="1">
          <mxGeometry x="20" y="17.5" width="22" height="29" as="geometry" />
        </mxCell>
        <mxCell id="iPOJ5_r_zSc3D9zY44-e-2" value="Corporate" style="text;html=1;strokeColor=none;fillColor=none;align=left;verticalAlign=middle;whiteSpace=wrap;rounded=0;fontFamily=Helvetica;fontSize=19;" parent="CaGocbQFJ1UNbeWpH9l7-1" vertex="1">
          <mxGeometry x="10" y="80" width="100" height="20" as="geometry" />
        </mxCell>
        <mxCell id="iPOJ5_r_zSc3D9zY44-e-3" value="Operations:" style="text;html=1;strokeColor=none;fillColor=none;align=left;verticalAlign=middle;whiteSpace=wrap;rounded=0;fontFamily=Helvetica;fontSize=17;" parent="CaGocbQFJ1UNbeWpH9l7-1" vertex="1">
          <mxGeometry x="40" y="110" width="170" height="20" as="geometry" />
        </mxCell>
        <mxCell id="iPOJ5_r_zSc3D9zY44-e-4" value="Clinical:" style="text;html=1;strokeColor=none;fillColor=none;align=left;verticalAlign=middle;whiteSpace=wrap;rounded=0;fontFamily=Helvetica;fontSize=17;" parent="CaGocbQFJ1UNbeWpH9l7-1" vertex="1">
          <mxGeometry x="40" y="140" width="170" height="20" as="geometry" />
        </mxCell>
        <mxCell id="iPOJ5_r_zSc3D9zY44-e-5" value="Accounting:" style="text;html=1;strokeColor=none;fillColor=none;align=left;verticalAlign=middle;whiteSpace=wrap;rounded=0;fontFamily=Helvetica;fontSize=17;" parent="CaGocbQFJ1UNbeWpH9l7-1" vertex="1">
          <mxGeometry x="40" y="170" width="170" height="20" as="geometry" />
        </mxCell>
        <mxCell id="iPOJ5_r_zSc3D9zY44-e-6" value="Support:" style="text;html=1;strokeColor=none;fillColor=none;align=left;verticalAlign=middle;whiteSpace=wrap;rounded=0;fontFamily=Helvetica;fontSize=17;" parent="CaGocbQFJ1UNbeWpH9l7-1" vertex="1">
          <mxGeometry x="40" y="200" width="170" height="20" as="geometry" />
        </mxCell>
        <mxCell id="iPOJ5_r_zSc3D9zY44-e-7" value="HR:" style="text;html=1;strokeColor=none;fillColor=none;align=left;verticalAlign=middle;whiteSpace=wrap;rounded=0;fontFamily=Helvetica;fontSize=17;" parent="CaGocbQFJ1UNbeWpH9l7-1" vertex="1">
          <mxGeometry x="42" y="230" width="170" height="20" as="geometry" />
        </mxCell>
        <mxCell id="iPOJ5_r_zSc3D9zY44-e-8" value="Center Administration" style="text;html=1;strokeColor=none;fillColor=none;align=left;verticalAlign=middle;whiteSpace=wrap;rounded=0;fontFamily=Helvetica;fontSize=19;" parent="CaGocbQFJ1UNbeWpH9l7-1" vertex="1">
          <mxGeometry x="10" y="260" width="190" height="20" as="geometry" />
        </mxCell>
        <mxCell id="iPOJ5_r_zSc3D9zY44-e-9" value="President:" style="text;html=1;strokeColor=none;fillColor=none;align=left;verticalAlign=middle;whiteSpace=wrap;rounded=0;fontFamily=Helvetica;fontSize=17;" parent="CaGocbQFJ1UNbeWpH9l7-1" vertex="1">
          <mxGeometry x="42" y="290" width="170" height="20" as="geometry" />
        </mxCell>
        <mxCell id="iPOJ5_r_zSc3D9zY44-e-10" value="Treasurer:&lt;span style=&quot;color: rgba(0 , 0 , 0 , 0) ; font-family: monospace ; font-size: 0px&quot;&gt;%3CmxGraphModel%3E%3Croot%3E%3CmxCell%20id%3D%220%22%2F%3E%3CmxCell%20id%3D%221%22%20parent%3D%220%22%2F%3E%3CmxCell%20id%3D%222%22%20value%3D%22President%3A%22%20style%3D%22text%3Bhtml%3D1%3BstrokeColor%3Dnone%3BfillColor%3Dnone%3Balign%3Dleft%3BverticalAlign%3Dmiddle%3BwhiteSpace%3Dwrap%3Brounded%3D0%3BfontFamily%3DHelvetica%3BfontColor%3D%236C7592%3BfontSize%3D17%3B%22%20vertex%3D%221%22%20parent%3D%221%22%3E%3CmxGeometry%20x%3D%22912%22%20y%3D%22290%22%20width%3D%22170%22%20height%3D%2220%22%20as%3D%22geometry%22%2F%3E%3C%2FmxCell%3E%3C%2Froot%3E%3C%2FmxGraphModel%3E&lt;/span&gt;" style="text;html=1;strokeColor=none;fillColor=none;align=left;verticalAlign=middle;whiteSpace=wrap;rounded=0;fontFamily=Helvetica;fontSize=17;" parent="CaGocbQFJ1UNbeWpH9l7-1" vertex="1">
          <mxGeometry x="42" y="320" width="170" height="20" as="geometry" />
        </mxCell>
        <mxCell id="iPOJ5_r_zSc3D9zY44-e-11" value="Administrator:" style="text;html=1;strokeColor=none;fillColor=none;align=left;verticalAlign=middle;whiteSpace=wrap;rounded=0;fontFamily=Helvetica;fontSize=17;" parent="CaGocbQFJ1UNbeWpH9l7-1" vertex="1">
          <mxGeometry x="42" y="350" width="170" height="20" as="geometry" />
        </mxCell>
        <mxCell id="iPOJ5_r_zSc3D9zY44-e-12" value="Medical Director:" style="text;html=1;strokeColor=none;fillColor=none;align=left;verticalAlign=middle;whiteSpace=wrap;rounded=0;fontFamily=Helvetica;fontSize=17;" parent="CaGocbQFJ1UNbeWpH9l7-1" vertex="1">
          <mxGeometry x="42" y="380" width="170" height="20" as="geometry" />
        </mxCell>
        <mxCell id="iPOJ5_r_zSc3D9zY44-e-13" value="Co Medical Director:" style="text;html=1;strokeColor=none;fillColor=none;align=left;verticalAlign=middle;whiteSpace=wrap;rounded=0;fontFamily=Helvetica;fontSize=17;" parent="CaGocbQFJ1UNbeWpH9l7-1" vertex="1">
          <mxGeometry x="42" y="410" width="170" height="20" as="geometry" />
        </mxCell>
        <mxCell id="3XmbVi55W3cSL-EmfvVC-1" value="Larry Trenk" style="text;html=1;strokeColor=none;fillColor=none;align=left;verticalAlign=middle;whiteSpace=wrap;rounded=0;fontFamily=Helvetica;fontSize=17;" parent="CaGocbQFJ1UNbeWpH9l7-1" vertex="1">
          <mxGeometry x="200" y="110" width="170" height="20" as="geometry" />
        </mxCell>
        <mxCell id="3XmbVi55W3cSL-EmfvVC-2" value="Teresa Chaisson" style="text;html=1;strokeColor=none;fillColor=none;align=left;verticalAlign=middle;whiteSpace=wrap;rounded=0;fontFamily=Helvetica;fontSize=17;" parent="CaGocbQFJ1UNbeWpH9l7-1" vertex="1">
          <mxGeometry x="200" y="140" width="170" height="20" as="geometry" />
        </mxCell>
        <mxCell id="3XmbVi55W3cSL-EmfvVC-3" value="Adam Harris" style="text;html=1;strokeColor=none;fillColor=none;align=left;verticalAlign=middle;whiteSpace=wrap;rounded=0;fontFamily=Helvetica;fontSize=17;" parent="CaGocbQFJ1UNbeWpH9l7-1" vertex="1">
          <mxGeometry x="200" y="170" width="170" height="20" as="geometry" />
        </mxCell>
        <mxCell id="3XmbVi55W3cSL-EmfvVC-4" value="Jennifer Rivera" style="text;html=1;strokeColor=none;fillColor=none;align=left;verticalAlign=middle;whiteSpace=wrap;rounded=0;fontFamily=Helvetica;fontSize=17;" parent="CaGocbQFJ1UNbeWpH9l7-1" vertex="1">
          <mxGeometry x="200" y="200" width="170" height="20" as="geometry" />
        </mxCell>
        <mxCell id="3XmbVi55W3cSL-EmfvVC-5" value="Candice Quigley" style="text;html=1;strokeColor=none;fillColor=none;align=left;verticalAlign=middle;whiteSpace=wrap;rounded=0;fontFamily=Helvetica;fontSize=17;" parent="CaGocbQFJ1UNbeWpH9l7-1" vertex="1">
          <mxGeometry x="200" y="230" width="170" height="20" as="geometry" />
        </mxCell>
        <mxCell id="3XmbVi55W3cSL-EmfvVC-6" value="Anthony Balistreti" style="text;html=1;strokeColor=none;fillColor=none;align=left;verticalAlign=middle;whiteSpace=wrap;rounded=0;fontFamily=Helvetica;fontSize=17;" parent="CaGocbQFJ1UNbeWpH9l7-1" vertex="1">
          <mxGeometry x="200" y="290" width="170" height="20" as="geometry" />
        </mxCell>
        <mxCell id="3XmbVi55W3cSL-EmfvVC-7" value="Ed Regan" style="text;html=1;strokeColor=none;fillColor=none;align=left;verticalAlign=middle;whiteSpace=wrap;rounded=0;fontFamily=Helvetica;fontSize=17;" parent="CaGocbQFJ1UNbeWpH9l7-1" vertex="1">
          <mxGeometry x="200" y="320" width="170" height="20" as="geometry" />
        </mxCell>
        <mxCell id="3XmbVi55W3cSL-EmfvVC-8" value="Stella Zagata-Fee" style="text;html=1;strokeColor=none;fillColor=none;align=left;verticalAlign=middle;whiteSpace=wrap;rounded=0;fontFamily=Helvetica;fontSize=17;" parent="CaGocbQFJ1UNbeWpH9l7-1" vertex="1">
          <mxGeometry x="200" y="350" width="170" height="20" as="geometry" />
        </mxCell>
        <mxCell id="3XmbVi55W3cSL-EmfvVC-9" value="Babak Danesh" style="text;html=1;strokeColor=none;fillColor=none;align=left;verticalAlign=middle;whiteSpace=wrap;rounded=0;fontFamily=Helvetica;fontSize=17;" parent="CaGocbQFJ1UNbeWpH9l7-1" vertex="1">
          <mxGeometry x="200" y="380" width="170" height="20" as="geometry" />
        </mxCell>
        <mxCell id="3XmbVi55W3cSL-EmfvVC-10" value="Paul Stoopack, MD" style="text;html=1;strokeColor=none;fillColor=none;align=left;verticalAlign=middle;whiteSpace=wrap;rounded=0;fontFamily=Helvetica;fontSize=17;" parent="CaGocbQFJ1UNbeWpH9l7-1" vertex="1">
          <mxGeometry x="200" y="410" width="170" height="20" as="geometry" />
        </mxCell>
        <mxCell id="3XmbVi55W3cSL-EmfvVC-12" value="Director of Nursing:" style="text;html=1;strokeColor=none;fillColor=none;align=left;verticalAlign=middle;whiteSpace=wrap;rounded=0;fontFamily=Helvetica;fontSize=17;" parent="CaGocbQFJ1UNbeWpH9l7-1" vertex="1">
          <mxGeometry x="42" y="440" width="170" height="20" as="geometry" />
        </mxCell>
        <mxCell id="3XmbVi55W3cSL-EmfvVC-13" value="Yanara Reda" style="text;html=1;strokeColor=none;fillColor=none;align=left;verticalAlign=middle;whiteSpace=wrap;rounded=0;fontFamily=Helvetica;fontSize=17;" parent="CaGocbQFJ1UNbeWpH9l7-1" vertex="1">
          <mxGeometry x="200" y="440" width="170" height="20" as="geometry" />
        </mxCell>
        <mxCell id="dBHfQqRNpbecZxsjb6q0-1" value="" style="shape=image;verticalLabelPosition=bottom;verticalAlign=top;aspect=fixed;imageAspect=0;image=data:image/png,iVBORw0KGgoAAAANSUhEUgAAABEAAAAOCAYAAADJ7fe0AAAA60lEQVQ4Ea3TsUoDQRDG8XsM2zxGWh/hXsEyZcoQrjHYWKRKlZDKSq6wCNjEzkIE08XKYJU0QooUSwjyk8udcB6eELmFhR2Y/c833+xGGljRbMpZj+jU3af7lCuI4lMvl/OHbBBdDv6hogC1bwkZxIF0cjqo85ADsoaiixHLwOqRdllq3XlAuia805kU7Rw9SRi/EdZ0r+pVnU9ZHVje08qKfHtSNja+Y7tndlOZWJ/eM2HHeFQq8hskG3NryMuOzYI4yeP5B9vXPP7xFOogx6SE6wXhE3vmaSG/6tOfkGpyXdwopJFn38D/8wUzf7n47vDmgAAAAABJRU5ErkJggg==;" parent="CaGocbQFJ1UNbeWpH9l7-1" vertex="1">
          <mxGeometry x="297" y="113" width="17" height="14" as="geometry" />
        </mxCell>
        <mxCell id="dBHfQqRNpbecZxsjb6q0-2" value="" style="shape=image;verticalLabelPosition=bottom;verticalAlign=top;aspect=fixed;imageAspect=0;image=data:image/png,iVBORw0KGgoAAAANSUhEUgAAABEAAAAOCAYAAADJ7fe0AAAA60lEQVQ4Ea3TsUoDQRDG8XsM2zxGWh/hXsEyZcoQrjHYWKRKlZDKSq6wCNjEzkIE08XKYJU0QooUSwjyk8udcB6eELmFhR2Y/c833+xGGljRbMpZj+jU3af7lCuI4lMvl/OHbBBdDv6hogC1bwkZxIF0cjqo85ADsoaiixHLwOqRdllq3XlAuia805kU7Rw9SRi/EdZ0r+pVnU9ZHVje08qKfHtSNja+Y7tndlOZWJ/eM2HHeFQq8hskG3NryMuOzYI4yeP5B9vXPP7xFOogx6SE6wXhE3vmaSG/6tOfkGpyXdwopJFn38D/8wUzf7n47vDmgAAAAABJRU5ErkJggg==;" parent="CaGocbQFJ1UNbeWpH9l7-1" vertex="1">
          <mxGeometry x="340" y="143" width="17" height="14" as="geometry" />
        </mxCell>
        <mxCell id="dBHfQqRNpbecZxsjb6q0-3" value="" style="shape=image;verticalLabelPosition=bottom;verticalAlign=top;aspect=fixed;imageAspect=0;image=data:image/png,iVBORw0KGgoAAAANSUhEUgAAABEAAAAOCAYAAADJ7fe0AAAA60lEQVQ4Ea3TsUoDQRDG8XsM2zxGWh/hXsEyZcoQrjHYWKRKlZDKSq6wCNjEzkIE08XKYJU0QooUSwjyk8udcB6eELmFhR2Y/c833+xGGljRbMpZj+jU3af7lCuI4lMvl/OHbBBdDv6hogC1bwkZxIF0cjqo85ADsoaiixHLwOqRdllq3XlAuia805kU7Rw9SRi/EdZ0r+pVnU9ZHVje08qKfHtSNja+Y7tndlOZWJ/eM2HHeFQq8hskG3NryMuOzYI4yeP5B9vXPP7xFOogx6SE6wXhE3vmaSG/6tOfkGpyXdwopJFn38D/8wUzf7n47vDmgAAAAABJRU5ErkJggg==;" parent="CaGocbQFJ1UNbeWpH9l7-1" vertex="1">
          <mxGeometry x="305" y="173" width="17" height="14" as="geometry" />
        </mxCell>
        <mxCell id="dBHfQqRNpbecZxsjb6q0-4" value="" style="shape=image;verticalLabelPosition=bottom;verticalAlign=top;aspect=fixed;imageAspect=0;image=data:image/png,iVBORw0KGgoAAAANSUhEUgAAABEAAAAOCAYAAADJ7fe0AAAA60lEQVQ4Ea3TsUoDQRDG8XsM2zxGWh/hXsEyZcoQrjHYWKRKlZDKSq6wCNjEzkIE08XKYJU0QooUSwjyk8udcB6eELmFhR2Y/c833+xGGljRbMpZj+jU3af7lCuI4lMvl/OHbBBdDv6hogC1bwkZxIF0cjqo85ADsoaiixHLwOqRdllq3XlAuia805kU7Rw9SRi/EdZ0r+pVnU9ZHVje08qKfHtSNja+Y7tndlOZWJ/eM2HHeFQq8hskG3NryMuOzYI4yeP5B9vXPP7xFOogx6SE6wXhE3vmaSG/6tOfkGpyXdwopJFn38D/8wUzf7n47vDmgAAAAABJRU5ErkJggg==;" parent="CaGocbQFJ1UNbeWpH9l7-1" vertex="1">
          <mxGeometry x="323" y="203" width="17" height="14" as="geometry" />
        </mxCell>
        <mxCell id="dBHfQqRNpbecZxsjb6q0-5" value="" style="shape=image;verticalLabelPosition=bottom;verticalAlign=top;aspect=fixed;imageAspect=0;image=data:image/png,iVBORw0KGgoAAAANSUhEUgAAABEAAAAOCAYAAADJ7fe0AAAA60lEQVQ4Ea3TsUoDQRDG8XsM2zxGWh/hXsEyZcoQrjHYWKRKlZDKSq6wCNjEzkIE08XKYJU0QooUSwjyk8udcB6eELmFhR2Y/c833+xGGljRbMpZj+jU3af7lCuI4lMvl/OHbBBdDv6hogC1bwkZxIF0cjqo85ADsoaiixHLwOqRdllq3XlAuia805kU7Rw9SRi/EdZ0r+pVnU9ZHVje08qKfHtSNja+Y7tndlOZWJ/eM2HHeFQq8hskG3NryMuOzYI4yeP5B9vXPP7xFOogx6SE6wXhE3vmaSG/6tOfkGpyXdwopJFn38D/8wUzf7n47vDmgAAAAABJRU5ErkJggg==;" parent="CaGocbQFJ1UNbeWpH9l7-1" vertex="1">
          <mxGeometry x="330" y="233" width="17" height="14" as="geometry" />
        </mxCell>
        <mxCell id="dBHfQqRNpbecZxsjb6q0-6" value="" style="shape=image;verticalLabelPosition=bottom;verticalAlign=top;aspect=fixed;imageAspect=0;image=data:image/png,iVBORw0KGgoAAAANSUhEUgAAABEAAAAOCAYAAADJ7fe0AAAA60lEQVQ4Ea3TsUoDQRDG8XsM2zxGWh/hXsEyZcoQrjHYWKRKlZDKSq6wCNjEzkIE08XKYJU0QooUSwjyk8udcB6eELmFhR2Y/c833+xGGljRbMpZj+jU3af7lCuI4lMvl/OHbBBdDv6hogC1bwkZxIF0cjqo85ADsoaiixHLwOqRdllq3XlAuia805kU7Rw9SRi/EdZ0r+pVnU9ZHVje08qKfHtSNja+Y7tndlOZWJ/eM2HHeFQq8hskG3NryMuOzYI4yeP5B9vXPP7xFOogx6SE6wXhE3vmaSG/6tOfkGpyXdwopJFn38D/8wUzf7n47vDmgAAAAABJRU5ErkJggg==;" parent="CaGocbQFJ1UNbeWpH9l7-1" vertex="1">
          <mxGeometry x="340" y="293" width="17" height="14" as="geometry" />
        </mxCell>
        <mxCell id="dBHfQqRNpbecZxsjb6q0-7" value="" style="shape=image;verticalLabelPosition=bottom;verticalAlign=top;aspect=fixed;imageAspect=0;image=data:image/png,iVBORw0KGgoAAAANSUhEUgAAABEAAAAOCAYAAADJ7fe0AAAA60lEQVQ4Ea3TsUoDQRDG8XsM2zxGWh/hXsEyZcoQrjHYWKRKlZDKSq6wCNjEzkIE08XKYJU0QooUSwjyk8udcB6eELmFhR2Y/c833+xGGljRbMpZj+jU3af7lCuI4lMvl/OHbBBdDv6hogC1bwkZxIF0cjqo85ADsoaiixHLwOqRdllq3XlAuia805kU7Rw9SRi/EdZ0r+pVnU9ZHVje08qKfHtSNja+Y7tndlOZWJ/eM2HHeFQq8hskG3NryMuOzYI4yeP5B9vXPP7xFOogx6SE6wXhE3vmaSG/6tOfkGpyXdwopJFn38D/8wUzf7n47vDmgAAAAABJRU5ErkJggg==;" parent="CaGocbQFJ1UNbeWpH9l7-1" vertex="1">
          <mxGeometry x="288" y="323" width="17" height="14" as="geometry" />
        </mxCell>
        <mxCell id="dBHfQqRNpbecZxsjb6q0-8" value="" style="shape=image;verticalLabelPosition=bottom;verticalAlign=top;aspect=fixed;imageAspect=0;image=data:image/png,iVBORw0KGgoAAAANSUhEUgAAABEAAAAOCAYAAADJ7fe0AAAA60lEQVQ4Ea3TsUoDQRDG8XsM2zxGWh/hXsEyZcoQrjHYWKRKlZDKSq6wCNjEzkIE08XKYJU0QooUSwjyk8udcB6eELmFhR2Y/c833+xGGljRbMpZj+jU3af7lCuI4lMvl/OHbBBdDv6hogC1bwkZxIF0cjqo85ADsoaiixHLwOqRdllq3XlAuia805kU7Rw9SRi/EdZ0r+pVnU9ZHVje08qKfHtSNja+Y7tndlOZWJ/eM2HHeFQq8hskG3NryMuOzYI4yeP5B9vXPP7xFOogx6SE6wXhE3vmaSG/6tOfkGpyXdwopJFn38D/8wUzf7n47vDmgAAAAABJRU5ErkJggg==;" parent="CaGocbQFJ1UNbeWpH9l7-1" vertex="1">
          <mxGeometry x="347" y="353" width="17" height="14" as="geometry" />
        </mxCell>
        <mxCell id="dBHfQqRNpbecZxsjb6q0-9" value="" style="shape=image;verticalLabelPosition=bottom;verticalAlign=top;aspect=fixed;imageAspect=0;image=data:image/png,iVBORw0KGgoAAAANSUhEUgAAABEAAAAOCAYAAADJ7fe0AAAA60lEQVQ4Ea3TsUoDQRDG8XsM2zxGWh/hXsEyZcoQrjHYWKRKlZDKSq6wCNjEzkIE08XKYJU0QooUSwjyk8udcB6eELmFhR2Y/c833+xGGljRbMpZj+jU3af7lCuI4lMvl/OHbBBdDv6hogC1bwkZxIF0cjqo85ADsoaiixHLwOqRdllq3XlAuia805kU7Rw9SRi/EdZ0r+pVnU9ZHVje08qKfHtSNja+Y7tndlOZWJ/eM2HHeFQq8hskG3NryMuOzYI4yeP5B9vXPP7xFOogx6SE6wXhE3vmaSG/6tOfkGpyXdwopJFn38D/8wUzf7n47vDmgAAAAABJRU5ErkJggg==;" parent="CaGocbQFJ1UNbeWpH9l7-1" vertex="1">
          <mxGeometry x="322" y="383" width="17" height="14" as="geometry" />
        </mxCell>
        <mxCell id="dBHfQqRNpbecZxsjb6q0-10" value="" style="shape=image;verticalLabelPosition=bottom;verticalAlign=top;aspect=fixed;imageAspect=0;image=data:image/png,iVBORw0KGgoAAAANSUhEUgAAABEAAAAOCAYAAADJ7fe0AAAA60lEQVQ4Ea3TsUoDQRDG8XsM2zxGWh/hXsEyZcoQrjHYWKRKlZDKSq6wCNjEzkIE08XKYJU0QooUSwjyk8udcB6eELmFhR2Y/c833+xGGljRbMpZj+jU3af7lCuI4lMvl/OHbBBdDv6hogC1bwkZxIF0cjqo85ADsoaiixHLwOqRdllq3XlAuia805kU7Rw9SRi/EdZ0r+pVnU9ZHVje08qKfHtSNja+Y7tndlOZWJ/eM2HHeFQq8hskG3NryMuOzYI4yeP5B9vXPP7xFOogx6SE6wXhE3vmaSG/6tOfkGpyXdwopJFn38D/8wUzf7n47vDmgAAAAABJRU5ErkJggg==;" parent="CaGocbQFJ1UNbeWpH9l7-1" vertex="1">
          <mxGeometry x="353" y="413" width="17" height="14" as="geometry" />
        </mxCell>
        <mxCell id="dBHfQqRNpbecZxsjb6q0-11" value="" style="shape=image;verticalLabelPosition=bottom;verticalAlign=top;aspect=fixed;imageAspect=0;image=data:image/png,iVBORw0KGgoAAAANSUhEUgAAABEAAAAOCAYAAADJ7fe0AAAA60lEQVQ4Ea3TsUoDQRDG8XsM2zxGWh/hXsEyZcoQrjHYWKRKlZDKSq6wCNjEzkIE08XKYJU0QooUSwjyk8udcB6eELmFhR2Y/c833+xGGljRbMpZj+jU3af7lCuI4lMvl/OHbBBdDv6hogC1bwkZxIF0cjqo85ADsoaiixHLwOqRdllq3XlAuia805kU7Rw9SRi/EdZ0r+pVnU9ZHVje08qKfHtSNja+Y7tndlOZWJ/eM2HHeFQq8hskG3NryMuOzYI4yeP5B9vXPP7xFOogx6SE6wXhE3vmaSG/6tOfkGpyXdwopJFn38D/8wUzf7n47vDmgAAAAABJRU5ErkJggg==;" parent="CaGocbQFJ1UNbeWpH9l7-1" vertex="1">
          <mxGeometry x="313" y="443" width="17" height="14" as="geometry" />
        </mxCell>
        <mxCell id="Gzc94xZC_rN6kc-rIQ7C-1" value="" style="group" vertex="1" connectable="0" parent="1">
          <mxGeometry x="970" width="420" height="490" as="geometry" />
        </mxCell>
        <mxCell id="Gzc94xZC_rN6kc-rIQ7C-2" value="" style="rounded=0;whiteSpace=wrap;html=1;fontFamily=Helvetica;fillColor=none;" vertex="1" parent="Gzc94xZC_rN6kc-rIQ7C-1">
          <mxGeometry width="420" height="64" as="geometry" />
        </mxCell>
        <mxCell id="Gzc94xZC_rN6kc-rIQ7C-3" value="" style="rounded=0;whiteSpace=wrap;html=1;fillColor=none;fontFamily=Helvetica;" vertex="1" parent="Gzc94xZC_rN6kc-rIQ7C-1">
          <mxGeometry y="64" width="420" height="426" as="geometry" />
        </mxCell>
        <mxCell id="Gzc94xZC_rN6kc-rIQ7C-4" value="" style="shape=image;verticalLabelPosition=bottom;verticalAlign=top;aspect=fixed;imageAspect=0;image=data:image/png,iVBORw0KGgoAAAANSUhEUgAAACEAAAAXCAYAAACFxybfAAACTElEQVRIDdWW0WvaQBzH/YN9yUOQhYZViSVSutIM0jEfovQhUIst4oOQPhQRGUipMGV0tApKKxtSECFCQ/mOy12SSxpdhDBcQHJeLnef+/5+v+8lgx24MjvAgP8Ewh6iUpCRFb1fHqr1jFcA9o8mlA9eP3cv1NC3k2u8WQl7iPI+N7lYxGnvxZ193juD6IPxY1h730wMsh4iCpAroXK3BOBgaukQNgF4zxKCZGaWxklNdmGiDyDUn9NRH68ArDBq6JHxMrJ7JUh7MWqIMhTrN4Ahyh4Yu9N+GrJEEGqbKLBC3yy9BzhuYUTi/3SNj5GFSB6lBKGh9YtspvYOQDi5weyNZGg0eQNV0oX4eRlKRNG4xZwAEIbvNUi5YOGgklJTQoYXjkFdh6RoOGrew63A2TecWxO3/frUgRaqJAqVkhIysiQxH0heBNfioQWV7V780sHUIZJMUD/Jh8KWHgRLOOHgK8qmiaOD8EKu/AUTXWIhb0sMLj75IKlD8LGObfulDMx7ppsn/x7CVawIrU1tneTJeTexTxjo2sDoivhAjFnF1H+sEtw4qRpUj2dW0tUEsG+h+f5Bc4yZVRFqtQZNJRlNIRbDa5Q/x5gTt9DfQMT6hGUyc0zVQKWqu6VOwxSC8Go8D6Xx6J6Q9PEam04IIl48MggH9w0tdN6EINiojbdZxwgZ1SYFxEONjt3iOF9/ikawFnfrXdGHOmY27jicmpGJYv4mhiDv2uMbnCrUIwTlDK3xEtO24ZaicNjEYIsPGZ5lKwj+xTTbOwHxB846o1NlRbbAAAAAAElFTkSuQmCC;" vertex="1" parent="Gzc94xZC_rN6kc-rIQ7C-1">
          <mxGeometry x="20" y="20.5" width="33" height="23" as="geometry" />
        </mxCell>
        <mxCell id="Gzc94xZC_rN6kc-rIQ7C-5" value="Services (Prod)" style="text;strokeColor=none;fillColor=none;html=1;fontSize=24;fontStyle=1;verticalAlign=middle;align=center;fontFamily=Helvetica;" vertex="1" parent="Gzc94xZC_rN6kc-rIQ7C-1">
          <mxGeometry x="53" y="12" width="117" height="40" as="geometry" />
        </mxCell>
        <mxCell id="Gzc94xZC_rN6kc-rIQ7C-6" value="Service Exp Date:" style="text;html=1;strokeColor=none;fillColor=none;align=left;verticalAlign=middle;whiteSpace=wrap;rounded=0;fontFamily=Helvetica;fontSize=19;" vertex="1" parent="Gzc94xZC_rN6kc-rIQ7C-1">
          <mxGeometry x="20" y="300" width="160" height="20" as="geometry" />
        </mxCell>
        <mxCell id="Gzc94xZC_rN6kc-rIQ7C-7" value="9/30/2027" style="text;html=1;strokeColor=none;fillColor=none;align=center;verticalAlign=middle;whiteSpace=wrap;rounded=0;fontFamily=Helvetica;fontSize=18;fontStyle=1" vertex="1" parent="Gzc94xZC_rN6kc-rIQ7C-1">
          <mxGeometry x="180" y="300" width="90" height="20" as="geometry" />
        </mxCell>
        <mxCell id="Gzc94xZC_rN6kc-rIQ7C-8" value="" style="group" vertex="1" connectable="0" parent="Gzc94xZC_rN6kc-rIQ7C-1">
          <mxGeometry x="20" y="80" width="200" height="20" as="geometry" />
        </mxCell>
        <mxCell id="Gzc94xZC_rN6kc-rIQ7C-9" value="Human Resources" style="text;html=1;strokeColor=none;fillColor=none;align=left;verticalAlign=middle;whiteSpace=wrap;rounded=0;fontFamily=Helvetica;fontSize=17;" vertex="1" parent="Gzc94xZC_rN6kc-rIQ7C-8">
          <mxGeometry x="30" width="170" height="20" as="geometry" />
        </mxCell>
        <mxCell id="Gzc94xZC_rN6kc-rIQ7C-10" value="" style="shape=image;verticalLabelPosition=bottom;verticalAlign=top;aspect=fixed;imageAspect=0;image=data:image/png,iVBORw0KGgoAAAANSUhEUgAAABMAAAAUCAYAAABvVQZ0AAABqklEQVQ4Ea2UP2vCQBjG7+N0y+Q3qNNNTk6ubpLJD1AXcSgIHcQPUBSjSBQcAg7iEDoFh1YElxKpg7agaekFCk+53KVJzkShbSCQe+99f3neP3cEFx528HB883A8+Bc8AZLmsVuaaIyKyHXyuEq8FHR0i/5ymxamwPYPaA1pBOgWURhUUZvWURmUQLsRPDdsw94nmZEy10BZqggc3fS02Ev8hzr6bgQUsI0pQRQV+znaPfPl2lVZBh39jXAkwBZjk6dGUbbTa5HFdG0dWicPzTSxA0DYoi4M4ymOWVGq/d0D++LGV1hjIaS28EFmE17UAlorNSJjLWtLLQeMu6zauOa1nsxBmvyj18ZTRmzCHGsST80N1D2i1eOC7kCCDk7m4i8ykn0mEGKRAN1j7YU+PkR2uoRZjtzxsJ7r0IwbWLJDwUYCZECdGsfiykJYqOzDQdOQg2nUMeNDeQEExJSd1Mxz0PgBllCQg6yZp4pEOrGapXYzDgzmKAukdDNzziQwWxHXpczZ2RPg+2DpR1T0RT0BgfX/zqYoY7xrf7s1JA//dp+FQAC/vWm/AUVO97xVB2fNAAAAAElFTkSuQmCC;" vertex="1" parent="Gzc94xZC_rN6kc-rIQ7C-8">
          <mxGeometry width="19" height="20" as="geometry" />
        </mxCell>
        <mxCell id="iBGB4Gi0ImNdByms3v0W-1" value="" style="shape=image;verticalLabelPosition=bottom;labelBackgroundColor=#ffffff;verticalAlign=top;aspect=fixed;imageAspect=0;image=data:image/png,iVBORw0KGgoAAAANSUhEUgAAABEAAAAOCAYAAADJ7fe0AAAA60lEQVQ4Ea3TsUoDQRDG8XsM2zxGWh/hXsEyZcoQrjHYWKRKlZDKSq6wCNjEzkIE08XKYJU0QooUSwjyk8udcB6eELmFhR2Y/c833+xGGljRbMpZj+jU3af7lCuI4lMvl/OHbBBdDv6hogC1bwkZxIF0cjqo85ADsoaiixHLwOqRdllq3XlAuia805kU7Rw9SRi/EdZ0r+pVnU9ZHVje08qKfHtSNja+Y7tndlOZWJ/eM2HHeFQq8hskG3NryMuOzYI4yeP5B9vXPP7xFOogx6SE6wXhE3vmaSG/6tOfkGpyXdwopJFn38D/8wUzf7n47vDmgAAAAABJRU5ErkJggg==;" vertex="1" parent="Gzc94xZC_rN6kc-rIQ7C-8">
          <mxGeometry x="183" width="17" height="14" as="geometry" />
        </mxCell>
        <mxCell id="Gzc94xZC_rN6kc-rIQ7C-11" value="" style="group" vertex="1" connectable="0" parent="Gzc94xZC_rN6kc-rIQ7C-1">
          <mxGeometry x="20" y="110" width="200" height="20" as="geometry" />
        </mxCell>
        <mxCell id="Gzc94xZC_rN6kc-rIQ7C-12" value="Finance" style="text;html=1;strokeColor=none;fillColor=none;align=left;verticalAlign=middle;whiteSpace=wrap;rounded=0;fontFamily=Helvetica;fontSize=17;" vertex="1" parent="Gzc94xZC_rN6kc-rIQ7C-11">
          <mxGeometry x="30" width="170" height="20" as="geometry" />
        </mxCell>
        <mxCell id="Gzc94xZC_rN6kc-rIQ7C-13" value="" style="shape=image;verticalLabelPosition=bottom;verticalAlign=top;aspect=fixed;imageAspect=0;image=data:image/png,iVBORw0KGgoAAAANSUhEUgAAABMAAAAUCAYAAABvVQZ0AAABqklEQVQ4Ea2UP2vCQBjG7+N0y+Q3qNNNTk6ubpLJD1AXcSgIHcQPUBSjSBQcAg7iEDoFh1YElxKpg7agaekFCk+53KVJzkShbSCQe+99f3neP3cEFx528HB883A8+Bc8AZLmsVuaaIyKyHXyuEq8FHR0i/5ymxamwPYPaA1pBOgWURhUUZvWURmUQLsRPDdsw94nmZEy10BZqggc3fS02Ev8hzr6bgQUsI0pQRQV+znaPfPl2lVZBh39jXAkwBZjk6dGUbbTa5HFdG0dWicPzTSxA0DYoi4M4ymOWVGq/d0D++LGV1hjIaS28EFmE17UAlorNSJjLWtLLQeMu6zauOa1nsxBmvyj18ZTRmzCHGsST80N1D2i1eOC7kCCDk7m4i8ykn0mEGKRAN1j7YU+PkR2uoRZjtzxsJ7r0IwbWLJDwUYCZECdGsfiykJYqOzDQdOQg2nUMeNDeQEExJSd1Mxz0PgBllCQg6yZp4pEOrGapXYzDgzmKAukdDNzziQwWxHXpczZ2RPg+2DpR1T0RT0BgfX/zqYoY7xrf7s1JA//dp+FQAC/vWm/AUVO97xVB2fNAAAAAElFTkSuQmCC;" vertex="1" parent="Gzc94xZC_rN6kc-rIQ7C-11">
          <mxGeometry width="19" height="20" as="geometry" />
        </mxCell>
        <mxCell id="iBGB4Gi0ImNdByms3v0W-2" value="" style="shape=image;verticalLabelPosition=bottom;labelBackgroundColor=#ffffff;verticalAlign=top;aspect=fixed;imageAspect=0;image=data:image/png,iVBORw0KGgoAAAANSUhEUgAAABEAAAAOCAYAAADJ7fe0AAAA60lEQVQ4Ea3TsUoDQRDG8XsM2zxGWh/hXsEyZcoQrjHYWKRKlZDKSq6wCNjEzkIE08XKYJU0QooUSwjyk8udcB6eELmFhR2Y/c833+xGGljRbMpZj+jU3af7lCuI4lMvl/OHbBBdDv6hogC1bwkZxIF0cjqo85ADsoaiixHLwOqRdllq3XlAuia805kU7Rw9SRi/EdZ0r+pVnU9ZHVje08qKfHtSNja+Y7tndlOZWJ/eM2HHeFQq8hskG3NryMuOzYI4yeP5B9vXPP7xFOogx6SE6wXhE3vmaSG/6tOfkGpyXdwopJFn38D/8wUzf7n47vDmgAAAAABJRU5ErkJggg==;" vertex="1" parent="Gzc94xZC_rN6kc-rIQ7C-11">
          <mxGeometry x="100" y="3" width="17" height="14" as="geometry" />
        </mxCell>
        <mxCell id="Gzc94xZC_rN6kc-rIQ7C-14" value="" style="group" vertex="1" connectable="0" parent="Gzc94xZC_rN6kc-rIQ7C-1">
          <mxGeometry x="20" y="140" width="200" height="20" as="geometry" />
        </mxCell>
        <mxCell id="Gzc94xZC_rN6kc-rIQ7C-15" value="Payor Contracting" style="text;html=1;strokeColor=none;fillColor=none;align=left;verticalAlign=middle;whiteSpace=wrap;rounded=0;fontFamily=Helvetica;fontSize=17;" vertex="1" parent="Gzc94xZC_rN6kc-rIQ7C-14">
          <mxGeometry x="30" width="170" height="20" as="geometry" />
        </mxCell>
        <mxCell id="Gzc94xZC_rN6kc-rIQ7C-16" value="" style="shape=image;verticalLabelPosition=bottom;verticalAlign=top;aspect=fixed;imageAspect=0;image=data:image/png,iVBORw0KGgoAAAANSUhEUgAAABMAAAAUCAYAAABvVQZ0AAABqklEQVQ4Ea2UP2vCQBjG7+N0y+Q3qNNNTk6ubpLJD1AXcSgIHcQPUBSjSBQcAg7iEDoFh1YElxKpg7agaekFCk+53KVJzkShbSCQe+99f3neP3cEFx528HB883A8+Bc8AZLmsVuaaIyKyHXyuEq8FHR0i/5ymxamwPYPaA1pBOgWURhUUZvWURmUQLsRPDdsw94nmZEy10BZqggc3fS02Ev8hzr6bgQUsI0pQRQV+znaPfPl2lVZBh39jXAkwBZjk6dGUbbTa5HFdG0dWicPzTSxA0DYoi4M4ymOWVGq/d0D++LGV1hjIaS28EFmE17UAlorNSJjLWtLLQeMu6zauOa1nsxBmvyj18ZTRmzCHGsST80N1D2i1eOC7kCCDk7m4i8ykn0mEGKRAN1j7YU+PkR2uoRZjtzxsJ7r0IwbWLJDwUYCZECdGsfiykJYqOzDQdOQg2nUMeNDeQEExJSd1Mxz0PgBllCQg6yZp4pEOrGapXYzDgzmKAukdDNzziQwWxHXpczZ2RPg+2DpR1T0RT0BgfX/zqYoY7xrf7s1JA//dp+FQAC/vWm/AUVO97xVB2fNAAAAAElFTkSuQmCC;" vertex="1" parent="Gzc94xZC_rN6kc-rIQ7C-14">
          <mxGeometry width="19" height="20" as="geometry" />
        </mxCell>
        <mxCell id="iBGB4Gi0ImNdByms3v0W-3" value="" style="shape=image;verticalLabelPosition=bottom;labelBackgroundColor=#ffffff;verticalAlign=top;aspect=fixed;imageAspect=0;image=data:image/png,iVBORw0KGgoAAAANSUhEUgAAABEAAAAOCAYAAADJ7fe0AAAA60lEQVQ4Ea3TsUoDQRDG8XsM2zxGWh/hXsEyZcoQrjHYWKRKlZDKSq6wCNjEzkIE08XKYJU0QooUSwjyk8udcB6eELmFhR2Y/c833+xGGljRbMpZj+jU3af7lCuI4lMvl/OHbBBdDv6hogC1bwkZxIF0cjqo85ADsoaiixHLwOqRdllq3XlAuia805kU7Rw9SRi/EdZ0r+pVnU9ZHVje08qKfHtSNja+Y7tndlOZWJ/eM2HHeFQq8hskG3NryMuOzYI4yeP5B9vXPP7xFOogx6SE6wXhE3vmaSG/6tOfkGpyXdwopJFn38D/8wUzf7n47vDmgAAAAABJRU5ErkJggg==;" vertex="1" parent="Gzc94xZC_rN6kc-rIQ7C-14">
          <mxGeometry x="183" y="3" width="17" height="14" as="geometry" />
        </mxCell>
        <mxCell id="Gzc94xZC_rN6kc-rIQ7C-17" value="" style="group" vertex="1" connectable="0" parent="Gzc94xZC_rN6kc-rIQ7C-1">
          <mxGeometry x="20" y="170" width="200" height="20" as="geometry" />
        </mxCell>
        <mxCell id="Gzc94xZC_rN6kc-rIQ7C-18" value="Billing" style="text;html=1;strokeColor=none;fillColor=none;align=left;verticalAlign=middle;whiteSpace=wrap;rounded=0;fontFamily=Helvetica;fontSize=17;" vertex="1" parent="Gzc94xZC_rN6kc-rIQ7C-17">
          <mxGeometry x="30" width="170" height="20" as="geometry" />
        </mxCell>
        <mxCell id="Gzc94xZC_rN6kc-rIQ7C-19" value="" style="shape=image;verticalLabelPosition=bottom;verticalAlign=top;aspect=fixed;imageAspect=0;image=data:image/png,iVBORw0KGgoAAAANSUhEUgAAABMAAAAUCAYAAABvVQZ0AAABqklEQVQ4Ea2UP2vCQBjG7+N0y+Q3qNNNTk6ubpLJD1AXcSgIHcQPUBSjSBQcAg7iEDoFh1YElxKpg7agaekFCk+53KVJzkShbSCQe+99f3neP3cEFx528HB883A8+Bc8AZLmsVuaaIyKyHXyuEq8FHR0i/5ymxamwPYPaA1pBOgWURhUUZvWURmUQLsRPDdsw94nmZEy10BZqggc3fS02Ev8hzr6bgQUsI0pQRQV+znaPfPl2lVZBh39jXAkwBZjk6dGUbbTa5HFdG0dWicPzTSxA0DYoi4M4ymOWVGq/d0D++LGV1hjIaS28EFmE17UAlorNSJjLWtLLQeMu6zauOa1nsxBmvyj18ZTRmzCHGsST80N1D2i1eOC7kCCDk7m4i8ykn0mEGKRAN1j7YU+PkR2uoRZjtzxsJ7r0IwbWLJDwUYCZECdGsfiykJYqOzDQdOQg2nUMeNDeQEExJSd1Mxz0PgBllCQg6yZp4pEOrGapXYzDgzmKAukdDNzziQwWxHXpczZ2RPg+2DpR1T0RT0BgfX/zqYoY7xrf7s1JA//dp+FQAC/vWm/AUVO97xVB2fNAAAAAElFTkSuQmCC;" vertex="1" parent="Gzc94xZC_rN6kc-rIQ7C-17">
          <mxGeometry width="19" height="20" as="geometry" />
        </mxCell>
        <mxCell id="iBGB4Gi0ImNdByms3v0W-4" value="" style="shape=image;verticalLabelPosition=bottom;labelBackgroundColor=#ffffff;verticalAlign=top;aspect=fixed;imageAspect=0;image=data:image/png,iVBORw0KGgoAAAANSUhEUgAAABEAAAAOCAYAAADJ7fe0AAAA60lEQVQ4Ea3TsUoDQRDG8XsM2zxGWh/hXsEyZcoQrjHYWKRKlZDKSq6wCNjEzkIE08XKYJU0QooUSwjyk8udcB6eELmFhR2Y/c833+xGGljRbMpZj+jU3af7lCuI4lMvl/OHbBBdDv6hogC1bwkZxIF0cjqo85ADsoaiixHLwOqRdllq3XlAuia805kU7Rw9SRi/EdZ0r+pVnU9ZHVje08qKfHtSNja+Y7tndlOZWJ/eM2HHeFQq8hskG3NryMuOzYI4yeP5B9vXPP7xFOogx6SE6wXhE3vmaSG/6tOfkGpyXdwopJFn38D/8wUzf7n47vDmgAAAAABJRU5ErkJggg==;" vertex="1" parent="Gzc94xZC_rN6kc-rIQ7C-17">
          <mxGeometry x="91.5" y="3" width="17" height="14" as="geometry" />
        </mxCell>
        <mxCell id="Gzc94xZC_rN6kc-rIQ7C-20" value="" style="group" vertex="1" connectable="0" parent="Gzc94xZC_rN6kc-rIQ7C-1">
          <mxGeometry x="20" y="200" width="200" height="20" as="geometry" />
        </mxCell>
        <mxCell id="Gzc94xZC_rN6kc-rIQ7C-21" value="Operations" style="text;html=1;strokeColor=none;fillColor=none;align=left;verticalAlign=middle;whiteSpace=wrap;rounded=0;fontFamily=Helvetica;fontSize=17;" vertex="1" parent="Gzc94xZC_rN6kc-rIQ7C-20">
          <mxGeometry x="30" width="170" height="20" as="geometry" />
        </mxCell>
        <mxCell id="Gzc94xZC_rN6kc-rIQ7C-22" value="" style="shape=image;verticalLabelPosition=bottom;verticalAlign=top;aspect=fixed;imageAspect=0;image=data:image/png,iVBORw0KGgoAAAANSUhEUgAAABMAAAAUCAYAAABvVQZ0AAABqklEQVQ4Ea2UP2vCQBjG7+N0y+Q3qNNNTk6ubpLJD1AXcSgIHcQPUBSjSBQcAg7iEDoFh1YElxKpg7agaekFCk+53KVJzkShbSCQe+99f3neP3cEFx528HB883A8+Bc8AZLmsVuaaIyKyHXyuEq8FHR0i/5ymxamwPYPaA1pBOgWURhUUZvWURmUQLsRPDdsw94nmZEy10BZqggc3fS02Ev8hzr6bgQUsI0pQRQV+znaPfPl2lVZBh39jXAkwBZjk6dGUbbTa5HFdG0dWicPzTSxA0DYoi4M4ymOWVGq/d0D++LGV1hjIaS28EFmE17UAlorNSJjLWtLLQeMu6zauOa1nsxBmvyj18ZTRmzCHGsST80N1D2i1eOC7kCCDk7m4i8ykn0mEGKRAN1j7YU+PkR2uoRZjtzxsJ7r0IwbWLJDwUYCZECdGsfiykJYqOzDQdOQg2nUMeNDeQEExJSd1Mxz0PgBllCQg6yZp4pEOrGapXYzDgzmKAukdDNzziQwWxHXpczZ2RPg+2DpR1T0RT0BgfX/zqYoY7xrf7s1JA//dp+FQAC/vWm/AUVO97xVB2fNAAAAAElFTkSuQmCC;" vertex="1" parent="Gzc94xZC_rN6kc-rIQ7C-20">
          <mxGeometry width="19" height="20" as="geometry" />
        </mxCell>
        <mxCell id="iBGB4Gi0ImNdByms3v0W-5" value="" style="shape=image;verticalLabelPosition=bottom;labelBackgroundColor=#ffffff;verticalAlign=top;aspect=fixed;imageAspect=0;image=data:image/png,iVBORw0KGgoAAAANSUhEUgAAABEAAAAOCAYAAADJ7fe0AAAA60lEQVQ4Ea3TsUoDQRDG8XsM2zxGWh/hXsEyZcoQrjHYWKRKlZDKSq6wCNjEzkIE08XKYJU0QooUSwjyk8udcB6eELmFhR2Y/c833+xGGljRbMpZj+jU3af7lCuI4lMvl/OHbBBdDv6hogC1bwkZxIF0cjqo85ADsoaiixHLwOqRdllq3XlAuia805kU7Rw9SRi/EdZ0r+pVnU9ZHVje08qKfHtSNja+Y7tndlOZWJ/eM2HHeFQq8hskG3NryMuOzYI4yeP5B9vXPP7xFOogx6SE6wXhE3vmaSG/6tOfkGpyXdwopJFn38D/8wUzf7n47vDmgAAAAABJRU5ErkJggg==;" vertex="1" parent="Gzc94xZC_rN6kc-rIQ7C-20">
          <mxGeometry x="130" y="3" width="17" height="14" as="geometry" />
        </mxCell>
        <mxCell id="Gzc94xZC_rN6kc-rIQ7C-23" value="" style="group" vertex="1" connectable="0" parent="Gzc94xZC_rN6kc-rIQ7C-1">
          <mxGeometry x="20" y="230" width="237" height="20" as="geometry" />
        </mxCell>
        <mxCell id="Gzc94xZC_rN6kc-rIQ7C-24" value="Information Technology" style="text;html=1;strokeColor=none;fillColor=none;align=left;verticalAlign=middle;whiteSpace=wrap;rounded=0;fontFamily=Helvetica;fontSize=17;" vertex="1" parent="Gzc94xZC_rN6kc-rIQ7C-23">
          <mxGeometry x="30" width="190" height="20" as="geometry" />
        </mxCell>
        <mxCell id="Gzc94xZC_rN6kc-rIQ7C-25" value="" style="shape=image;verticalLabelPosition=bottom;verticalAlign=top;aspect=fixed;imageAspect=0;image=data:image/png,iVBORw0KGgoAAAANSUhEUgAAABMAAAAUCAYAAABvVQZ0AAABqklEQVQ4Ea2UP2vCQBjG7+N0y+Q3qNNNTk6ubpLJD1AXcSgIHcQPUBSjSBQcAg7iEDoFh1YElxKpg7agaekFCk+53KVJzkShbSCQe+99f3neP3cEFx528HB883A8+Bc8AZLmsVuaaIyKyHXyuEq8FHR0i/5ymxamwPYPaA1pBOgWURhUUZvWURmUQLsRPDdsw94nmZEy10BZqggc3fS02Ev8hzr6bgQUsI0pQRQV+znaPfPl2lVZBh39jXAkwBZjk6dGUbbTa5HFdG0dWicPzTSxA0DYoi4M4ymOWVGq/d0D++LGV1hjIaS28EFmE17UAlorNSJjLWtLLQeMu6zauOa1nsxBmvyj18ZTRmzCHGsST80N1D2i1eOC7kCCDk7m4i8ykn0mEGKRAN1j7YU+PkR2uoRZjtzxsJ7r0IwbWLJDwUYCZECdGsfiykJYqOzDQdOQg2nUMeNDeQEExJSd1Mxz0PgBllCQg6yZp4pEOrGapXYzDgzmKAukdDNzziQwWxHXpczZ2RPg+2DpR1T0RT0BgfX/zqYoY7xrf7s1JA//dp+FQAC/vWm/AUVO97xVB2fNAAAAAElFTkSuQmCC;" vertex="1" parent="Gzc94xZC_rN6kc-rIQ7C-23">
          <mxGeometry width="19" height="20" as="geometry" />
        </mxCell>
        <mxCell id="iBGB4Gi0ImNdByms3v0W-6" value="" style="shape=image;verticalLabelPosition=bottom;labelBackgroundColor=#ffffff;verticalAlign=top;aspect=fixed;imageAspect=0;image=data:image/png,iVBORw0KGgoAAAANSUhEUgAAABEAAAAOCAYAAADJ7fe0AAAA60lEQVQ4Ea3TsUoDQRDG8XsM2zxGWh/hXsEyZcoQrjHYWKRKlZDKSq6wCNjEzkIE08XKYJU0QooUSwjyk8udcB6eELmFhR2Y/c833+xGGljRbMpZj+jU3af7lCuI4lMvl/OHbBBdDv6hogC1bwkZxIF0cjqo85ADsoaiixHLwOqRdllq3XlAuia805kU7Rw9SRi/EdZ0r+pVnU9ZHVje08qKfHtSNja+Y7tndlOZWJ/eM2HHeFQq8hskG3NryMuOzYI4yeP5B9vXPP7xFOogx6SE6wXhE3vmaSG/6tOfkGpyXdwopJFn38D/8wUzf7n47vDmgAAAAABJRU5ErkJggg==;" vertex="1" parent="Gzc94xZC_rN6kc-rIQ7C-23">
          <mxGeometry x="220" width="17" height="14" as="geometry" />
        </mxCell>
        <mxCell id="Gzc94xZC_rN6kc-rIQ7C-26" value="" style="group" vertex="1" connectable="0" parent="Gzc94xZC_rN6kc-rIQ7C-1">
          <mxGeometry x="20" y="260" width="220" height="21" as="geometry" />
        </mxCell>
        <mxCell id="Gzc94xZC_rN6kc-rIQ7C-27" value="" style="shape=image;verticalLabelPosition=bottom;verticalAlign=top;aspect=fixed;imageAspect=0;image=data:image/png,iVBORw0KGgoAAAANSUhEUgAAABQAAAAVCAYAAABG1c6oAAABiUlEQVQ4Ea2VMWvCQBiG/VOdnTIFhA7ipL9AEIRs7rp0sUv9DZ0iCC5OLjplapaahp6StDatraGWA8NbPu+SXKrFFi4Qcrm899z3vffdpYQ/XHwbY7eJsdtyJGf0pd++x44NZtWwuDB+3CY86wqBE2J/YvARMInmWDbNHGLU4DUssJsu/EYdnqFM0BzgJSpSC8A9u4VflgNIzPjJKHigTFpuIWA5NAMmgS1hJvzh40lQPky03oeWyISggeiTwBBhm9IkWHjWeBX8MWwJaNtGDOAA5LOu6OxM8JmpY2zG9pFH5HEwvsdXpnvFU0cEw2acgBzrHvl2iZWbqRCP5MzVLtbS+CSaglVJa8IfhZk4cQfwqBp6UwI6WNJCVAZ4yyRAPtjAgqDuRMLke2F177CqGFiUr1HCs40HSecKkJoFaFqPSsS5PM2ypQD7Tv5dae3TdA7AesEWRYaoT1aowN4UeiLU7qH+VQY01yFZq3mnEFLzXhYFoPW0SWtK63mYQump7cRWoWn7P/+Ub7tXqg4pdsJpAAAAAElFTkSuQmCC;" vertex="1" parent="Gzc94xZC_rN6kc-rIQ7C-26">
          <mxGeometry width="20" height="21" as="geometry" />
        </mxCell>
        <mxCell id="Gzc94xZC_rN6kc-rIQ7C-28" value="Benefit Verification" style="text;html=1;strokeColor=none;fillColor=none;align=left;verticalAlign=middle;whiteSpace=wrap;rounded=0;fontFamily=Helvetica;fontSize=17;" vertex="1" parent="Gzc94xZC_rN6kc-rIQ7C-26">
          <mxGeometry x="30" width="190" height="20" as="geometry" />
        </mxCell>
        <mxCell id="iBGB4Gi0ImNdByms3v0W-7" value="" style="shape=image;verticalLabelPosition=bottom;labelBackgroundColor=#ffffff;verticalAlign=top;aspect=fixed;imageAspect=0;image=data:image/png,iVBORw0KGgoAAAANSUhEUgAAABEAAAAOCAYAAADJ7fe0AAAA60lEQVQ4Ea3TsUoDQRDG8XsM2zxGWh/hXsEyZcoQrjHYWKRKlZDKSq6wCNjEzkIE08XKYJU0QooUSwjyk8udcB6eELmFhR2Y/c833+xGGljRbMpZj+jU3af7lCuI4lMvl/OHbBBdDv6hogC1bwkZxIF0cjqo85ADsoaiixHLwOqRdllq3XlAuia805kU7Rw9SRi/EdZ0r+pVnU9ZHVje08qKfHtSNja+Y7tndlOZWJ/eM2HHeFQq8hskG3NryMuOzYI4yeP5B9vXPP7xFOogx6SE6wXhE3vmaSG/6tOfkGpyXdwopJFn38D/8wUzf7n47vDmgAAAAABJRU5ErkJggg==;" vertex="1" parent="Gzc94xZC_rN6kc-rIQ7C-26">
          <mxGeometry x="190" y="3.5" width="17" height="14" as="geometry" />
        </mxCell>
      </root>
    </mxGraphModel>
  </diagram>
  <diagram id="asos0wiEJuesXcYzenR1" name="CentersPageEditTemplate">
    <mxGraphModel dx="1102" dy="582" grid="1" gridSize="10" guides="1" tooltips="1" connect="1" arrows="1" fold="1" page="1" pageScale="1" pageWidth="850" pageHeight="1100" math="0" shadow="0">
      <root>
        <mxCell id="qxq6UqilVLNA3ccNzOwD-0" />
        <mxCell id="qxq6UqilVLNA3ccNzOwD-1" parent="qxq6UqilVLNA3ccNzOwD-0" />
        <mxCell id="K4iAV-Q20G6F3Ze8ShiM-0" value="" style="group" parent="qxq6UqilVLNA3ccNzOwD-1" vertex="1" connectable="0">
          <mxGeometry x="430" width="420" height="456" as="geometry" />
        </mxCell>
        <mxCell id="K4iAV-Q20G6F3Ze8ShiM-1" value="" style="rounded=0;whiteSpace=wrap;html=1;fontFamily=Helvetica;fontColor=#6C7592;fillColor=none;strokeColor=#6C7592;" parent="K4iAV-Q20G6F3Ze8ShiM-0" vertex="1">
          <mxGeometry width="420" height="64" as="geometry" />
        </mxCell>
        <mxCell id="K4iAV-Q20G6F3Ze8ShiM-2" value="" style="rounded=0;whiteSpace=wrap;html=1;strokeColor=#6C7592;fillColor=none;fontFamily=Helvetica;fontColor=#6C7592;" parent="K4iAV-Q20G6F3Ze8ShiM-0" vertex="1">
          <mxGeometry y="64" width="420" height="392" as="geometry" />
        </mxCell>
        <mxCell id="K4iAV-Q20G6F3Ze8ShiM-3" value="" style="shape=image;verticalLabelPosition=bottom;labelBackgroundColor=#ffffff;verticalAlign=top;aspect=fixed;imageAspect=0;image=data:image/png,iVBORw0KGgoAAAANSUhEUgAAACEAAAAXCAYAAACFxybfAAACTElEQVRIDdWW0WvaQBzH/YN9yUOQhYZViSVSutIM0jEfovQhUIst4oOQPhQRGUipMGV0tApKKxtSECFCQ/mOy12SSxpdhDBcQHJeLnef+/5+v+8lgx24MjvAgP8Ewh6iUpCRFb1fHqr1jFcA9o8mlA9eP3cv1NC3k2u8WQl7iPI+N7lYxGnvxZ193juD6IPxY1h730wMsh4iCpAroXK3BOBgaukQNgF4zxKCZGaWxklNdmGiDyDUn9NRH68ArDBq6JHxMrJ7JUh7MWqIMhTrN4Ahyh4Yu9N+GrJEEGqbKLBC3yy9BzhuYUTi/3SNj5GFSB6lBKGh9YtspvYOQDi5weyNZGg0eQNV0oX4eRlKRNG4xZwAEIbvNUi5YOGgklJTQoYXjkFdh6RoOGrew63A2TecWxO3/frUgRaqJAqVkhIysiQxH0heBNfioQWV7V780sHUIZJMUD/Jh8KWHgRLOOHgK8qmiaOD8EKu/AUTXWIhb0sMLj75IKlD8LGObfulDMx7ppsn/x7CVawIrU1tneTJeTexTxjo2sDoivhAjFnF1H+sEtw4qRpUj2dW0tUEsG+h+f5Bc4yZVRFqtQZNJRlNIRbDa5Q/x5gTt9DfQMT6hGUyc0zVQKWqu6VOwxSC8Go8D6Xx6J6Q9PEam04IIl48MggH9w0tdN6EINiojbdZxwgZ1SYFxEONjt3iOF9/ikawFnfrXdGHOmY27jicmpGJYv4mhiDv2uMbnCrUIwTlDK3xEtO24ZaicNjEYIsPGZ5lKwj+xTTbOwHxB846o1NlRbbAAAAAAElFTkSuQmCC;" parent="K4iAV-Q20G6F3Ze8ShiM-0" vertex="1">
          <mxGeometry x="20" y="20.5" width="33" height="23" as="geometry" />
        </mxCell>
        <mxCell id="K4iAV-Q20G6F3Ze8ShiM-4" value="Services" style="text;strokeColor=none;fillColor=none;html=1;fontSize=24;fontStyle=1;verticalAlign=middle;align=center;fontFamily=Helvetica;fontColor=#6C7592;" parent="K4iAV-Q20G6F3Ze8ShiM-0" vertex="1">
          <mxGeometry x="53" y="12" width="117" height="40" as="geometry" />
        </mxCell>
        <mxCell id="K4iAV-Q20G6F3Ze8ShiM-5" value="Human Resources" style="html=1;shadow=0;dashed=0;shape=mxgraph.atlassian.checkbox_2;strokeColor=none;align=left;verticalAlign=middle;fontStyle=0;fontSize=15;labelPosition=right;verticalLabelPosition=middle;spacingLeft=10;fillColor=#0075FF;" parent="K4iAV-Q20G6F3Ze8ShiM-0" vertex="1">
          <mxGeometry x="20" y="80" width="15" height="15" as="geometry" />
        </mxCell>
        <mxCell id="K4iAV-Q20G6F3Ze8ShiM-6" value="Finance" style="html=1;shadow=0;dashed=0;shape=mxgraph.atlassian.checkbox_2;strokeColor=none;align=left;verticalAlign=middle;fontStyle=0;fontSize=15;labelPosition=right;verticalLabelPosition=middle;spacingLeft=10;fillColor=#0075FF;" parent="K4iAV-Q20G6F3Ze8ShiM-0" vertex="1">
          <mxGeometry x="20" y="110" width="15" height="15" as="geometry" />
        </mxCell>
        <mxCell id="K4iAV-Q20G6F3Ze8ShiM-7" value="Payor Contracting" style="html=1;shadow=0;dashed=0;shape=mxgraph.atlassian.checkbox_2;strokeColor=none;align=left;verticalAlign=middle;fontStyle=0;fontSize=15;labelPosition=right;verticalLabelPosition=middle;spacingLeft=10;fillColor=#0075FF;" parent="K4iAV-Q20G6F3Ze8ShiM-0" vertex="1">
          <mxGeometry x="20" y="140" width="15" height="15" as="geometry" />
        </mxCell>
        <mxCell id="K4iAV-Q20G6F3Ze8ShiM-8" value="Billing" style="html=1;shadow=0;dashed=0;shape=mxgraph.atlassian.checkbox_2;strokeColor=none;align=left;verticalAlign=middle;fontStyle=0;fontSize=15;labelPosition=right;verticalLabelPosition=middle;spacingLeft=10;fillColor=#0075FF;" parent="K4iAV-Q20G6F3Ze8ShiM-0" vertex="1">
          <mxGeometry x="20" y="170" width="15" height="15" as="geometry" />
        </mxCell>
        <mxCell id="K4iAV-Q20G6F3Ze8ShiM-9" value="Operations" style="html=1;shadow=0;dashed=0;shape=mxgraph.atlassian.checkbox_2;strokeColor=none;align=left;verticalAlign=middle;fontStyle=0;fontSize=15;labelPosition=right;verticalLabelPosition=middle;spacingLeft=10;fillColor=#0075FF;" parent="K4iAV-Q20G6F3Ze8ShiM-0" vertex="1">
          <mxGeometry x="20" y="200" width="15" height="15" as="geometry" />
        </mxCell>
        <mxCell id="K4iAV-Q20G6F3Ze8ShiM-10" value="Information Technology" style="html=1;shadow=0;dashed=0;shape=mxgraph.atlassian.checkbox_2;strokeColor=none;align=left;verticalAlign=middle;fontStyle=0;fontSize=15;labelPosition=right;verticalLabelPosition=middle;spacingLeft=10;fillColor=#0075FF;" parent="K4iAV-Q20G6F3Ze8ShiM-0" vertex="1">
          <mxGeometry x="20" y="230" width="15" height="15" as="geometry" />
        </mxCell>
        <mxCell id="K4iAV-Q20G6F3Ze8ShiM-11" value="Benefit Verification" style="rounded=1;fillColor=#F0F2F5;strokeColor=#D8DCE3;align=left;verticalAlign=middle;fontStyle=0;fontSize=15;labelPosition=right;verticalLabelPosition=middle;spacingLeft=10;html=1;shadow=0;dashed=0" parent="K4iAV-Q20G6F3Ze8ShiM-0" vertex="1">
          <mxGeometry x="20" y="260" width="15" height="15" as="geometry" />
        </mxCell>
        <mxCell id="K4iAV-Q20G6F3Ze8ShiM-12" value="Service Exp Date:" style="text;html=1;strokeColor=none;fillColor=none;align=left;verticalAlign=middle;whiteSpace=wrap;rounded=0;fontFamily=Helvetica;fontColor=#6C7592;fontSize=19;" parent="K4iAV-Q20G6F3Ze8ShiM-0" vertex="1">
          <mxGeometry x="20" y="300" width="160" height="20" as="geometry" />
        </mxCell>
        <mxCell id="K4iAV-Q20G6F3Ze8ShiM-13" value="09/30/2027" style="rounded=1;arcSize=9;fillColor=#F7F8F9;align=left;spacingLeft=5;strokeColor=#DEE1E6;html=1;strokeWidth=2;fontColor=#596780;fontSize=16;" parent="K4iAV-Q20G6F3Ze8ShiM-0" vertex="1">
          <mxGeometry x="190" y="295" width="150" height="33" as="geometry" />
        </mxCell>
        <mxCell id="K4iAV-Q20G6F3Ze8ShiM-14" value="" style="shape=mxgraph.gmdl.calendar;fillColor=#5A6881;strokeColor=none" parent="K4iAV-Q20G6F3Ze8ShiM-13" vertex="1">
          <mxGeometry x="1" y="0.5" width="18" height="18" relative="1" as="geometry">
            <mxPoint x="-29" y="-9" as="offset" />
          </mxGeometry>
        </mxCell>
        <mxCell id="q0uYvWl6bHVtQipT_Puj-0" value="" style="group" parent="qxq6UqilVLNA3ccNzOwD-1" vertex="1" connectable="0">
          <mxGeometry width="510" height="473" as="geometry" />
        </mxCell>
        <mxCell id="q0uYvWl6bHVtQipT_Puj-1" value="" style="rounded=0;whiteSpace=wrap;html=1;strokeColor=#6C7592;fillColor=none;fontFamily=Helvetica;fontColor=#6C7592;" parent="q0uYvWl6bHVtQipT_Puj-0" vertex="1">
          <mxGeometry y="64" width="420" height="392" as="geometry" />
        </mxCell>
        <mxCell id="q0uYvWl6bHVtQipT_Puj-2" value="" style="rounded=0;whiteSpace=wrap;html=1;fontFamily=Helvetica;fontColor=#6C7592;fillColor=none;strokeColor=#6C7592;" parent="q0uYvWl6bHVtQipT_Puj-0" vertex="1">
          <mxGeometry width="420" height="64" as="geometry" />
        </mxCell>
        <mxCell id="q0uYvWl6bHVtQipT_Puj-3" value="Center" style="text;strokeColor=none;fillColor=none;html=1;fontSize=24;fontStyle=1;verticalAlign=middle;align=center;fontFamily=Helvetica;fontColor=#6C7592;" parent="q0uYvWl6bHVtQipT_Puj-0" vertex="1">
          <mxGeometry x="40" y="12" width="100" height="40" as="geometry" />
        </mxCell>
        <mxCell id="q0uYvWl6bHVtQipT_Puj-4" value="" style="shape=image;verticalLabelPosition=bottom;labelBackgroundColor=#ffffff;verticalAlign=top;aspect=fixed;imageAspect=0;image=data:image/png,iVBORw0KGgoAAAANSUhEUgAAAB4AAAAcCAYAAAB2+A+pAAABOUlEQVRIDe1WQQsBQRT2g10cXJRQDhw47EVxoBz2oBycVpubXKRIDpSzkhSKsm2fdha9zOzuLNZu2Jrt1c6bb773vve1MYT0xELCRZSBDcw7ChLJNOKeK4d8Z4mzRBklGM9Q8wSkl1Ix/krgRLaIVDYnKL8vxgY2iz7aagsNblWREZS6NgUwVQXAZZS4M6xzNfQW23v/WY/Po6bgANo3Ehc0zPcHHA0Axgm7/RLtAvkuuCQVZWVkJcIep5WufAw4r6+fBL4yci61O/uXgZ3FFTAw7Zuf+GXGfsDo3qgCqxiaV98zJ5xlZrq2Mq0dq275YSLccz0YU/fhvfqWzIC5UZTLZQbCz7H7rQNk7D4SVCx+41u1HBj/HnBoPZZT5l/VMgqPhqp3g/qD7QU3TsrgwLxY4veW7Xv76wKbDNBGZ+QR2AAAAABJRU5ErkJggg==;" parent="q0uYvWl6bHVtQipT_Puj-0" vertex="1">
          <mxGeometry x="10" y="18" width="30" height="28" as="geometry" />
        </mxCell>
        <mxCell id="q0uYvWl6bHVtQipT_Puj-6" value="Acronym :" style="text;html=1;strokeColor=none;fillColor=none;align=left;verticalAlign=middle;whiteSpace=wrap;rounded=0;fontFamily=Helvetica;fontColor=#6C7592;fontSize=19;" parent="q0uYvWl6bHVtQipT_Puj-0" vertex="1">
          <mxGeometry x="20" y="86" width="100" height="20" as="geometry" />
        </mxCell>
        <mxCell id="q0uYvWl6bHVtQipT_Puj-8" value="Ownership" style="html=1;shadow=0;dashed=0;shape=mxgraph.bootstrap.rrect;rSize=5;strokeColor=none;strokeWidth=1;fillColor=none;fontColor=#0085FC;whiteSpace=wrap;align=center;verticalAlign=middle;spacingLeft=0;fontStyle=0;fontSize=16;spacing=5;" parent="q0uYvWl6bHVtQipT_Puj-0" vertex="1">
          <mxGeometry x="326" y="86" width="89" height="20" as="geometry" />
        </mxCell>
        <mxCell id="q0uYvWl6bHVtQipT_Puj-9" value="Name :" style="text;html=1;strokeColor=none;fillColor=none;align=left;verticalAlign=middle;whiteSpace=wrap;rounded=0;fontFamily=Helvetica;fontColor=#6C7592;fontSize=19;" parent="q0uYvWl6bHVtQipT_Puj-0" vertex="1">
          <mxGeometry x="20" y="126" width="100" height="20" as="geometry" />
        </mxCell>
        <mxCell id="q0uYvWl6bHVtQipT_Puj-11" value="Region :" style="text;html=1;strokeColor=none;fillColor=none;align=left;verticalAlign=middle;whiteSpace=wrap;rounded=0;fontFamily=Helvetica;fontColor=#6C7592;fontSize=19;" parent="q0uYvWl6bHVtQipT_Puj-0" vertex="1">
          <mxGeometry x="20" y="170" width="80" height="20" as="geometry" />
        </mxCell>
        <mxCell id="q0uYvWl6bHVtQipT_Puj-13" value="" style="shape=image;verticalLabelPosition=bottom;labelBackgroundColor=#ffffff;verticalAlign=top;aspect=fixed;imageAspect=0;image=data:image/png,iVBORw0KGgoAAAANSUhEUgAAABkAAAAaCAYAAABCfffNAAABrUlEQVRIDb2Wz2vCMBTH/YN38VBkA/cLlQ3RMWET3EFBpOwH9eKhIF6GyGAIK3OIwhhDZmGI6HaQtch3aENN2toma1khkLwk309e8t6jMfzDF4uaYcxe0aoWEE8kEU/J6EyByCCGruHm4hRxKYkdumXUsBAT82EbV9kjVpiGSPIfIUsTereB3LHj1Iw4mStrghBziqemjNQuh/gamIfyzvsmX2N0lBL2ErziZN15G3MEQIzJC9RVpHhdQ6AtjVrfil3P6JqPuqjl/B6Tw6OMihHJDwpiYvKsopgKKU48LHZNOwUtiP6AAk+kBF4R8XC/jt7SZqyi6xNqlsN9XoCUxMn994ZgPfwAFdGo8QMmqnj8YRhWngzu0j4ZK+blQWPMEjYhbGIy1NBq3KIib2/Fs6DDXKI1czHEMl5vFnw9lq4HbsLGE885l9Efkofy4dqyNlB54r2AtvpCyhoMejHVjwiSRm1IqTq60UBIIXRo28NIIHQJsZWpTngIVQgpXaYbGpJrsyWEUScDIQj6dUh0SXEUQi/AyiYGwQI9hfzuHJagvC226TJ2QQizl3vwC/aQgNbfP9u8AAAAAElFTkSuQmCC;" parent="q0uYvWl6bHVtQipT_Puj-0" vertex="1">
          <mxGeometry x="20" y="247" width="25" height="26" as="geometry" />
        </mxCell>
        <mxCell id="q0uYvWl6bHVtQipT_Puj-14" value="&lt;font style=&quot;font-size: 23px&quot;&gt;Locations&lt;/font&gt;" style="text;html=1;strokeColor=none;fillColor=none;align=left;verticalAlign=middle;whiteSpace=wrap;rounded=0;fontFamily=Helvetica;fontColor=#6C7592;fontSize=19;" parent="q0uYvWl6bHVtQipT_Puj-0" vertex="1">
          <mxGeometry x="60" y="247" width="100" height="20" as="geometry" />
        </mxCell>
        <mxCell id="q0uYvWl6bHVtQipT_Puj-15" value="&lt;font style=&quot;font-size: 17px&quot;&gt;Location 1&lt;/font&gt;" style="text;html=1;strokeColor=none;fillColor=none;align=left;verticalAlign=middle;whiteSpace=wrap;rounded=0;fontFamily=Helvetica;fontColor=#6C7592;fontSize=19;" parent="q0uYvWl6bHVtQipT_Puj-0" vertex="1">
          <mxGeometry x="20" y="286" width="100" height="20" as="geometry" />
        </mxCell>
        <mxCell id="q0uYvWl6bHVtQipT_Puj-16" value="7600 River Road&lt;br&gt;4th Floor&lt;br&gt;North Bergen, NJ 07047&lt;br&gt;US" style="text;html=1;strokeColor=none;fillColor=none;align=left;verticalAlign=middle;whiteSpace=wrap;rounded=0;fontFamily=Helvetica;fontSize=17;fontColor=#000000;fontStyle=1" parent="q0uYvWl6bHVtQipT_Puj-0" vertex="1">
          <mxGeometry x="120" y="286" width="200" height="80" as="geometry" />
        </mxCell>
        <mxCell id="q0uYvWl6bHVtQipT_Puj-17" value="" style="shape=image;verticalLabelPosition=bottom;labelBackgroundColor=#ffffff;verticalAlign=top;aspect=fixed;imageAspect=0;image=data:image/png,iVBORw0KGgoAAAANSUhEUgAAABAAAAAOCAYAAAAmL5yKAAABIUlEQVQ4EWP4/////1dXzv4/eowIfO7B/49/QDoQgOHjno7/Jrq2/+WJxCZTriB0////n+HV+lKwZhu/6v8t87f837e+738gPsMyt/x/hWQE3IDJ52Cin/9vL8bjIlwGdJ+EGfD//4/Dfbi9hMuAyKUPICa8Pv6/O9SZdAPk3Rf+vwIK4Re7/+eZk+EFUCykr3kGdsWPc1PgAWnjl/TfGdlAXF6ARGPM/8nnfkIMub3lf0vz7v+PQK768/n/7QNT/ieAYge/Abb/5c2T/ncfeIsIURjr08H/tUQZAE4Dzv+dcxb+33fv7f8fsJR3bgokwRF0AZZEZOKS9D/QFhqwZQf/f4S5CpQS/784+L8lLel/ZAQxOP//LGgYwcxggDHIpQFcZ2XYdV7E/wAAAABJRU5ErkJggg==;" parent="q0uYvWl6bHVtQipT_Puj-0" vertex="1">
          <mxGeometry x="120" y="366" width="16" height="14" as="geometry" />
        </mxCell>
        <mxCell id="q0uYvWl6bHVtQipT_Puj-18" value="201-705-1080" style="html=1;shadow=0;dashed=0;shape=mxgraph.bootstrap.rrect;rSize=5;strokeColor=none;strokeWidth=1;fillColor=none;fontColor=#0085FC;whiteSpace=wrap;align=center;verticalAlign=middle;spacingLeft=0;fontStyle=1;fontSize=16;spacing=5;" parent="q0uYvWl6bHVtQipT_Puj-0" vertex="1">
          <mxGeometry x="140" y="363" width="110" height="20" as="geometry" />
        </mxCell>
        <mxCell id="q0uYvWl6bHVtQipT_Puj-19" value="" style="shape=image;verticalLabelPosition=bottom;labelBackgroundColor=#ffffff;verticalAlign=top;aspect=fixed;imageAspect=0;image=data:image/png,iVBORw0KGgoAAAANSUhEUgAAAA8AAAASCAYAAACEnoQPAAABQ0lEQVQ4EaWTPWvCUBSG80/8BW6FTpkyCF1KB4vBTllSF50cM0gHwWIXHYpO3TqU1kFw9gdkCAS6FywiiKShoFB4yklMTEjjBw2ckHvPfc57PnIV/vEoKfbbx1vl2SZ1VBYJ2KV3rlIo5pmG3ndZJ0KkYQFLTe77QwaxPVAvRQE1zJfPGM/CtTGL2C0fS0a1CFYpdN3Yq1gVA/NuysePS0+UMzCsv3y891dM8SfhsMYmo3k+HEjNxyGs3jJwwuYpGTi3YbvUzbdlEO9vWL1BrxhcqQJoaGUDvXzJ2Tbwfnhbl90VWEoCorSLKvvhaisYlVUV+Jp6e8ig3eTiKOUDde9XtqYsVksmligbPDk+nvOMfpRyxw66aXcEbjCaAbPtqA7WfGzauz9sg/3YCEYkY8q3FhPJJH2rwo1T3omLcQoWnv0FNWz/QQAMhU8AAAAASUVORK5CYII=;" parent="q0uYvWl6bHVtQipT_Puj-0" vertex="1">
          <mxGeometry x="120" y="383" width="15" height="18" as="geometry" />
        </mxCell>
        <mxCell id="q0uYvWl6bHVtQipT_Puj-20" value="201-705-1090" style="text;html=1;strokeColor=none;fillColor=none;align=left;verticalAlign=middle;whiteSpace=wrap;rounded=0;fontFamily=Helvetica;fontSize=17;fontColor=#000000;fontStyle=1" parent="q0uYvWl6bHVtQipT_Puj-0" vertex="1">
          <mxGeometry x="143" y="382" width="110" height="20" as="geometry" />
        </mxCell>
        <mxCell id="q0uYvWl6bHVtQipT_Puj-21" value="" style="shape=image;verticalLabelPosition=bottom;labelBackgroundColor=#ffffff;verticalAlign=top;aspect=fixed;imageAspect=0;image=data:image/png,iVBORw0KGgoAAAANSUhEUgAAABEAAAASCAYAAAC9+TVUAAABo0lEQVQ4Ea2SP2vCQBjG/SZ+AjfBycmh1EFwaGlXF1soOulShI6FUhczlDplEBSKkSJIqUgzWHBIpoBgodiAIopIDEICwlMuucufaoqDB8fd+9x7v/c57g3hCCN0BAZ2IVsd6ocIZW1C4jKIxjKoyDrUbhv92f6SfshaQuUsgeTTCMZnGdFIHGEyUzyUxTuKkVMUG2MYf1guZKOgkiKXElblXpECLJBXSyAnTH0YCjEhPZ7bVSNl9DcSHpgLul7WxlBf8jTnCvVvl+M4MVY6NGuawNake6bp0Dbw65432ZABRyvEEb5uYy57YuaI6EMeSRaf8FCoGQsyFwqHQWZtZBkkwkHyQV4PhEz+geBHxDNXtWdDgeaNg3SS53UCLCHVKIQToRojdNhltnan0OSmU6wzNJ3vcX9H5pC23ptHazJG/cLbJ3GU3nQoVdoGpPm2DsPf9qpQsLo0KyzdCxb4Fp0VBafu0Zu4ALJznDBZG/DI3TShLkSUYrabNKdAk6vI3rXxtWaZ7roDsY62JgzSTDMJLUGBRmLSbAFjPyQgOUg+CuQX9OXkpv7eSNIAAAAASUVORK5CYII=;" parent="q0uYvWl6bHVtQipT_Puj-0" vertex="1">
          <mxGeometry x="119" y="406" width="17" height="18" as="geometry" />
        </mxCell>
        <mxCell id="q0uYvWl6bHVtQipT_Puj-22" value="ACE" style="strokeWidth=1;shadow=0;dashed=0;align=center;html=1;shape=mxgraph.mockup.text.textBox;fontColor=#666666;align=left;fontSize=17;spacingLeft=4;spacingTop=-3;strokeColor=#666666;mainText=;fillColor=none;" parent="q0uYvWl6bHVtQipT_Puj-0" vertex="1">
          <mxGeometry x="110" y="81" width="200" height="30" as="geometry" />
        </mxCell>
        <mxCell id="q0uYvWl6bHVtQipT_Puj-23" value="AMBULATORY CENTER" style="strokeWidth=1;shadow=0;dashed=0;align=center;html=1;shape=mxgraph.mockup.text.textBox;fontColor=#666666;align=left;fontSize=17;spacingLeft=4;spacingTop=-3;strokeColor=#666666;mainText=;fillColor=none;" parent="q0uYvWl6bHVtQipT_Puj-0" vertex="1">
          <mxGeometry x="110" y="121" width="200" height="30" as="geometry" />
        </mxCell>
        <mxCell id="q0uYvWl6bHVtQipT_Puj-33" value="New York/North NJ" style="html=1;shadow=0;dashed=0;shape=mxgraph.bootstrap.rrect;rSize=5;strokeWidth=1;whiteSpace=wrap;align=left;verticalAlign=middle;fontStyle=0;fontSize=17;spacingLeft=10;fontColor=#6C7592;labelBackgroundColor=none;fillColor=#FFFFFF;" parent="q0uYvWl6bHVtQipT_Puj-0" vertex="1">
          <mxGeometry x="110" y="160" width="200" height="40" as="geometry" />
        </mxCell>
        <mxCell id="q0uYvWl6bHVtQipT_Puj-34" value="" style="shape=triangle;direction=south;strokeColor=none;perimeter=none;fontColor=#6C7592;fillColor=#6C7592;" parent="q0uYvWl6bHVtQipT_Puj-33" vertex="1">
          <mxGeometry x="1" y="0.5" width="10" height="5" relative="1" as="geometry">
            <mxPoint x="-17" y="-2.5" as="offset" />
          </mxGeometry>
        </mxCell>
        <mxCell id="q0uYvWl6bHVtQipT_Puj-35" value="" style="html=1;shadow=0;dashed=0;shape=mxgraph.bootstrap.rrect;rSize=5;fillColor=#ffffff;strokeColor=#999999;fontSize=15;fontColor=#6C7592;" parent="qxq6UqilVLNA3ccNzOwD-1" vertex="1">
          <mxGeometry y="470" width="170" height="110" as="geometry" />
        </mxCell>
        <mxCell id="q0uYvWl6bHVtQipT_Puj-36" value="Select Region" style="fillColor=none;strokeColor=none;align=left;spacing=20;fontSize=17;fontColor=#6C7592;" parent="q0uYvWl6bHVtQipT_Puj-35" vertex="1">
          <mxGeometry width="170" height="30" relative="1" as="geometry">
            <mxPoint y="10" as="offset" />
          </mxGeometry>
        </mxCell>
        <mxCell id="q0uYvWl6bHVtQipT_Puj-37" value="Central/South" style="fillColor=none;strokeColor=none;align=left;spacing=20;fontSize=17;fontColor=#6C7592;" parent="q0uYvWl6bHVtQipT_Puj-35" vertex="1">
          <mxGeometry width="170" height="30" relative="1" as="geometry">
            <mxPoint y="40" as="offset" />
          </mxGeometry>
        </mxCell>
        <mxCell id="q0uYvWl6bHVtQipT_Puj-38" value="New York/North NJ" style="fillColor=none;strokeColor=none;align=left;spacing=20;fontSize=17;fontColor=#6C7592;" parent="q0uYvWl6bHVtQipT_Puj-35" vertex="1">
          <mxGeometry width="170" height="30" relative="1" as="geometry">
            <mxPoint y="70" as="offset" />
          </mxGeometry>
        </mxCell>
        <mxCell id="0IrZndZ1vrX0l3BXIT5F-0" value="" style="shape=image;verticalLabelPosition=bottom;labelBackgroundColor=#ffffff;verticalAlign=top;aspect=fixed;imageAspect=0;image=data:image/png,iVBORw0KGgoAAAANSUhEUgAAAB4AAAAfCAYAAADwbH0HAAABR0lEQVRIDe2XPw/BQBjG7+P0C/gInTqZTBKTxGSxmVjEbDIZb8CgBmFsRG2dWIjFYBALAxLJI4TSunMtbY/QpOnl0tzv/fO879sSSLrIbtZCsalBoWoAtwZNr2G8EXtDcoEAXUbXK7AEcBKMpy7wyRkBPDywAO4Ax42JODm8Nw4bmN34o044njvAaXPBO9bT/tLMPoI5nkcDPsOrGB9u9kcHpiqK1t4mRwq+T+WPg98qJwBTI8lW9UlcVAU31KF1sT8YgEPVHxrqBPJ9C/PtpQdsF7D6BWiX/Hkx+gVxJVAesQfsblTxDPcP1jtY283OvVihrTPmMSMSvsGpwfOpNR9kntbvNQ3fA1ZkhVqhssR1FoqUcvKm2quIeE/f4uId5Hc/PVzZtRjOBz2jhhWaR+/GRcC/MOyUxJolNGbOzkds3yNeSAMfAQ0IS+emrhCtAAAAAElFTkSuQmCC;" parent="qxq6UqilVLNA3ccNzOwD-1" vertex="1">
          <mxGeometry x="340" y="16.5" width="30" height="31" as="geometry" />
        </mxCell>
        <mxCell id="0IrZndZ1vrX0l3BXIT5F-1" value="" style="shape=image;verticalLabelPosition=bottom;labelBackgroundColor=#ffffff;verticalAlign=top;aspect=fixed;imageAspect=0;image=data:image/png,iVBORw0KGgoAAAANSUhEUgAAACoAAAAcCAYAAAAX4C3rAAABiElEQVRYCdXXvU7DMBAH8L4UM1OnTAyIB0AMvAErLNl5EUQegYmNAdEFKFIVEYQQSwQVkqM/cuJrPvAldpzEpFJ1HZL6Z5/vEi8wk8/C2ClSfEYh1kGAp73luN/gGJvoEd+i1JlBRYK3i6NxcZrJP1/eYaus3VBPyCJrB4hXhbQd6hVZbK91lORSHvoPkHJV26F9kIch3j+A7PUaL0um2PZPEa9S4OsB8YlZUfJQkSA5M/uTXfUrJNWoFktIusgQq4f2Qcr0XBX7iAwy1rBNpLpwe3Pe2Un+Qnsi81VlIDk2UOmuzqI5EU1romzVoS5IGoTDVpo2WWurTfczsYQOgaRBGCwBZbRB1qr+5zbs3CeUBqPYgrVFjg+9T5FVl1H9FpuW1kVZacT5pT6f7BD7lEl5NlgxUYpcsBxSPqUGbU+O2Gkbvgt28kdoBWv9ojz5S4kLttFajPpuxz1leyKYLvZ53esY2BZvBpV4r1jTowitsies3eFuh53DcZmwHiN/uPOI0g09G+gvsKfEAKPbYJ8AAAAASUVORK5CYII=;" parent="qxq6UqilVLNA3ccNzOwD-1" vertex="1">
          <mxGeometry x="373" y="19.5" width="42" height="28" as="geometry" />
        </mxCell>
        <mxCell id="xXRnHA4H-zm9zhgyCjYD-0" value="" style="group" parent="qxq6UqilVLNA3ccNzOwD-1" vertex="1" connectable="0">
          <mxGeometry x="860" width="420" height="460" as="geometry" />
        </mxCell>
        <mxCell id="xXRnHA4H-zm9zhgyCjYD-1" value="" style="rounded=0;whiteSpace=wrap;html=1;fontFamily=Helvetica;fontColor=#6C7592;fillColor=none;strokeColor=#6C7592;" parent="xXRnHA4H-zm9zhgyCjYD-0" vertex="1">
          <mxGeometry width="420" height="60.08163265306123" as="geometry" />
        </mxCell>
        <mxCell id="xXRnHA4H-zm9zhgyCjYD-2" value="" style="rounded=0;whiteSpace=wrap;html=1;strokeColor=#6C7592;fillColor=none;fontFamily=Helvetica;fontColor=#6C7592;" parent="xXRnHA4H-zm9zhgyCjYD-0" vertex="1">
          <mxGeometry y="60.08163265306123" width="420" height="399.9183673469388" as="geometry" />
        </mxCell>
        <mxCell id="xXRnHA4H-zm9zhgyCjYD-3" value="Key Contacts" style="text;strokeColor=none;fillColor=none;html=1;fontSize=24;fontStyle=1;verticalAlign=middle;align=center;fontFamily=Helvetica;fontColor=#6C7592;" parent="xXRnHA4H-zm9zhgyCjYD-0" vertex="1">
          <mxGeometry x="53" y="11.26530612244898" width="157" height="37.55102040816327" as="geometry" />
        </mxCell>
        <mxCell id="xXRnHA4H-zm9zhgyCjYD-4" value="" style="shape=image;verticalLabelPosition=bottom;labelBackgroundColor=#ffffff;verticalAlign=top;aspect=fixed;imageAspect=0;image=data:image/png,iVBORw0KGgoAAAANSUhEUgAAABYAAAAdCAYAAACuc5z4AAABZ0lEQVRIDdXUz0sCQRjG8f2DvXQYpEDQ0EAED14KJRAkpA5e8mAHwSREkKgoCbsESrsk4XElRb7hj2GRfde0doIWhoFl9rPvvjPPWhi6LEMum+HpiE4lTzKeIKJiRFQClclzcTti8k1FwbDTJhefY/JQJ22cWbAuw26XwgZUv0yVurgBtgg/nacCK9Xock5x9izLAtyjGJU/fx1drSn3RNkPvzdIBvRVhDMNHIH+QxhTrQAMbR5g6rgt9sJIQPQuG4m0xn84+47bxLXp3T3QadaotPt8fPrlyahPq1qjPl/3YuNO/Ws8eGpTz6fFKO/F0xwkl0PtC6mMpsk17bU/3hJ2uxQPhQd2SaCKcVD2fkoWjGmd/h7VcT/ujBd9sXitonasTCPifFRjAFjOVVbsq/jQVgVkuXTAui+F1wZdTOHxX8KDavg9rryBxWzIdUAwdM+2nudBuRmujps/jaHc8SIdCuchxuAv22r1h/kzptIAAAAASUVORK5CYII=;" parent="xXRnHA4H-zm9zhgyCjYD-0" vertex="1">
          <mxGeometry x="20" y="16.42857142857143" width="20.653061224489797" height="27.22448979591837" as="geometry" />
        </mxCell>
        <mxCell id="xXRnHA4H-zm9zhgyCjYD-5" value="Corporate" style="text;html=1;strokeColor=none;fillColor=none;align=left;verticalAlign=middle;whiteSpace=wrap;rounded=0;fontFamily=Helvetica;fontColor=#6C7592;fontSize=19;" parent="xXRnHA4H-zm9zhgyCjYD-0" vertex="1">
          <mxGeometry x="10" y="75.10204081632654" width="100" height="18.775510204081634" as="geometry" />
        </mxCell>
        <mxCell id="xXRnHA4H-zm9zhgyCjYD-6" value="Operations:" style="text;html=1;strokeColor=none;fillColor=none;align=left;verticalAlign=middle;whiteSpace=wrap;rounded=0;fontFamily=Helvetica;fontColor=#6C7592;fontSize=17;" parent="xXRnHA4H-zm9zhgyCjYD-0" vertex="1">
          <mxGeometry x="40" y="103.26530612244899" width="170" height="18.775510204081634" as="geometry" />
        </mxCell>
        <mxCell id="xXRnHA4H-zm9zhgyCjYD-7" value="Clinical:" style="text;html=1;strokeColor=none;fillColor=none;align=left;verticalAlign=middle;whiteSpace=wrap;rounded=0;fontFamily=Helvetica;fontColor=#6C7592;fontSize=17;" parent="xXRnHA4H-zm9zhgyCjYD-0" vertex="1">
          <mxGeometry x="40" y="131.42857142857144" width="170" height="18.775510204081634" as="geometry" />
        </mxCell>
        <mxCell id="xXRnHA4H-zm9zhgyCjYD-8" value="Accounting:" style="text;html=1;strokeColor=none;fillColor=none;align=left;verticalAlign=middle;whiteSpace=wrap;rounded=0;fontFamily=Helvetica;fontColor=#6C7592;fontSize=17;" parent="xXRnHA4H-zm9zhgyCjYD-0" vertex="1">
          <mxGeometry x="40" y="159.59183673469389" width="170" height="18.775510204081634" as="geometry" />
        </mxCell>
        <mxCell id="xXRnHA4H-zm9zhgyCjYD-9" value="Support:" style="text;html=1;strokeColor=none;fillColor=none;align=left;verticalAlign=middle;whiteSpace=wrap;rounded=0;fontFamily=Helvetica;fontColor=#6C7592;fontSize=17;" parent="xXRnHA4H-zm9zhgyCjYD-0" vertex="1">
          <mxGeometry x="40" y="187.75510204081633" width="170" height="18.775510204081634" as="geometry" />
        </mxCell>
        <mxCell id="xXRnHA4H-zm9zhgyCjYD-10" value="HR:" style="text;html=1;strokeColor=none;fillColor=none;align=left;verticalAlign=middle;whiteSpace=wrap;rounded=0;fontFamily=Helvetica;fontColor=#6C7592;fontSize=17;" parent="xXRnHA4H-zm9zhgyCjYD-0" vertex="1">
          <mxGeometry x="42" y="215.9183673469388" width="170" height="18.775510204081634" as="geometry" />
        </mxCell>
        <mxCell id="xXRnHA4H-zm9zhgyCjYD-11" value="Center Administration" style="text;html=1;strokeColor=none;fillColor=none;align=left;verticalAlign=middle;whiteSpace=wrap;rounded=0;fontFamily=Helvetica;fontColor=#6C7592;fontSize=19;" parent="xXRnHA4H-zm9zhgyCjYD-0" vertex="1">
          <mxGeometry x="10" y="244.08163265306123" width="190" height="18.775510204081634" as="geometry" />
        </mxCell>
        <mxCell id="xXRnHA4H-zm9zhgyCjYD-12" value="President:" style="text;html=1;strokeColor=none;fillColor=none;align=left;verticalAlign=middle;whiteSpace=wrap;rounded=0;fontFamily=Helvetica;fontColor=#6C7592;fontSize=17;" parent="xXRnHA4H-zm9zhgyCjYD-0" vertex="1">
          <mxGeometry x="42" y="272.2448979591837" width="170" height="18.775510204081634" as="geometry" />
        </mxCell>
        <mxCell id="xXRnHA4H-zm9zhgyCjYD-13" value="Treasurer:&lt;span style=&quot;color: rgba(0 , 0 , 0 , 0) ; font-family: monospace ; font-size: 0px&quot;&gt;%3CmxGraphModel%3E%3Croot%3E%3CmxCell%20id%3D%220%22%2F%3E%3CmxCell%20id%3D%221%22%20parent%3D%220%22%2F%3E%3CmxCell%20id%3D%222%22%20value%3D%22President%3A%22%20style%3D%22text%3Bhtml%3D1%3BstrokeColor%3Dnone%3BfillColor%3Dnone%3Balign%3Dleft%3BverticalAlign%3Dmiddle%3BwhiteSpace%3Dwrap%3Brounded%3D0%3BfontFamily%3DHelvetica%3BfontColor%3D%236C7592%3BfontSize%3D17%3B%22%20vertex%3D%221%22%20parent%3D%221%22%3E%3CmxGeometry%20x%3D%22912%22%20y%3D%22290%22%20width%3D%22170%22%20height%3D%2220%22%20as%3D%22geometry%22%2F%3E%3C%2FmxCell%3E%3C%2Froot%3E%3C%2FmxGraphModel%3E&lt;/span&gt;" style="text;html=1;strokeColor=none;fillColor=none;align=left;verticalAlign=middle;whiteSpace=wrap;rounded=0;fontFamily=Helvetica;fontColor=#6C7592;fontSize=17;" parent="xXRnHA4H-zm9zhgyCjYD-0" vertex="1">
          <mxGeometry x="42" y="300.40816326530614" width="170" height="18.775510204081634" as="geometry" />
        </mxCell>
        <mxCell id="xXRnHA4H-zm9zhgyCjYD-14" value="Administrator:" style="text;html=1;strokeColor=none;fillColor=none;align=left;verticalAlign=middle;whiteSpace=wrap;rounded=0;fontFamily=Helvetica;fontColor=#6C7592;fontSize=17;" parent="xXRnHA4H-zm9zhgyCjYD-0" vertex="1">
          <mxGeometry x="42" y="328.5714285714286" width="170" height="18.775510204081634" as="geometry" />
        </mxCell>
        <mxCell id="xXRnHA4H-zm9zhgyCjYD-15" value="Medical Director:" style="text;html=1;strokeColor=none;fillColor=none;align=left;verticalAlign=middle;whiteSpace=wrap;rounded=0;fontFamily=Helvetica;fontColor=#6C7592;fontSize=17;" parent="xXRnHA4H-zm9zhgyCjYD-0" vertex="1">
          <mxGeometry x="42" y="356.734693877551" width="170" height="18.775510204081634" as="geometry" />
        </mxCell>
        <mxCell id="xXRnHA4H-zm9zhgyCjYD-16" value="Co Medical Director:" style="text;html=1;strokeColor=none;fillColor=none;align=left;verticalAlign=middle;whiteSpace=wrap;rounded=0;fontFamily=Helvetica;fontColor=#6C7592;fontSize=17;" parent="xXRnHA4H-zm9zhgyCjYD-0" vertex="1">
          <mxGeometry x="42" y="384.8979591836735" width="170" height="18.775510204081634" as="geometry" />
        </mxCell>
        <mxCell id="xXRnHA4H-zm9zhgyCjYD-17" value="Larry Trenk" style="text;html=1;strokeColor=none;fillColor=none;align=left;verticalAlign=middle;whiteSpace=wrap;rounded=0;fontFamily=Helvetica;fontColor=#6C7592;fontSize=17;" parent="xXRnHA4H-zm9zhgyCjYD-0" vertex="1">
          <mxGeometry x="200" y="103.26530612244899" width="170" height="18.775510204081634" as="geometry" />
        </mxCell>
        <mxCell id="xXRnHA4H-zm9zhgyCjYD-18" value="Teresa Chaisson" style="text;html=1;strokeColor=none;fillColor=none;align=left;verticalAlign=middle;whiteSpace=wrap;rounded=0;fontFamily=Helvetica;fontColor=#6C7592;fontSize=17;" parent="xXRnHA4H-zm9zhgyCjYD-0" vertex="1">
          <mxGeometry x="200" y="131.42857142857144" width="170" height="18.775510204081634" as="geometry" />
        </mxCell>
        <mxCell id="xXRnHA4H-zm9zhgyCjYD-19" value="Adam Harris" style="text;html=1;strokeColor=none;fillColor=none;align=left;verticalAlign=middle;whiteSpace=wrap;rounded=0;fontFamily=Helvetica;fontColor=#6C7592;fontSize=17;" parent="xXRnHA4H-zm9zhgyCjYD-0" vertex="1">
          <mxGeometry x="200" y="159.59183673469389" width="170" height="18.775510204081634" as="geometry" />
        </mxCell>
        <mxCell id="xXRnHA4H-zm9zhgyCjYD-20" value="Jennifer Rivera" style="text;html=1;strokeColor=none;fillColor=none;align=left;verticalAlign=middle;whiteSpace=wrap;rounded=0;fontFamily=Helvetica;fontColor=#6C7592;fontSize=17;" parent="xXRnHA4H-zm9zhgyCjYD-0" vertex="1">
          <mxGeometry x="200" y="187.75510204081633" width="170" height="18.775510204081634" as="geometry" />
        </mxCell>
        <mxCell id="xXRnHA4H-zm9zhgyCjYD-21" value="Candice Quigley" style="text;html=1;strokeColor=none;fillColor=none;align=left;verticalAlign=middle;whiteSpace=wrap;rounded=0;fontFamily=Helvetica;fontColor=#6C7592;fontSize=17;" parent="xXRnHA4H-zm9zhgyCjYD-0" vertex="1">
          <mxGeometry x="200" y="215.9183673469388" width="170" height="18.775510204081634" as="geometry" />
        </mxCell>
        <mxCell id="xXRnHA4H-zm9zhgyCjYD-22" value="Anthony Balistreti" style="text;html=1;strokeColor=none;fillColor=none;align=left;verticalAlign=middle;whiteSpace=wrap;rounded=0;fontFamily=Helvetica;fontColor=#6C7592;fontSize=17;" parent="xXRnHA4H-zm9zhgyCjYD-0" vertex="1">
          <mxGeometry x="200" y="272.2448979591837" width="170" height="18.775510204081634" as="geometry" />
        </mxCell>
        <mxCell id="xXRnHA4H-zm9zhgyCjYD-23" value="Ed Regan" style="text;html=1;strokeColor=none;fillColor=none;align=left;verticalAlign=middle;whiteSpace=wrap;rounded=0;fontFamily=Helvetica;fontColor=#6C7592;fontSize=17;" parent="xXRnHA4H-zm9zhgyCjYD-0" vertex="1">
          <mxGeometry x="200" y="300.40816326530614" width="170" height="18.775510204081634" as="geometry" />
        </mxCell>
        <mxCell id="xXRnHA4H-zm9zhgyCjYD-24" value="Stella Zagata-Fee" style="text;html=1;strokeColor=none;fillColor=none;align=left;verticalAlign=middle;whiteSpace=wrap;rounded=0;fontFamily=Helvetica;fontColor=#6C7592;fontSize=17;" parent="xXRnHA4H-zm9zhgyCjYD-0" vertex="1">
          <mxGeometry x="200" y="328.5714285714286" width="170" height="18.775510204081634" as="geometry" />
        </mxCell>
        <mxCell id="xXRnHA4H-zm9zhgyCjYD-25" value="Babak Danesh" style="text;html=1;strokeColor=none;fillColor=none;align=left;verticalAlign=middle;whiteSpace=wrap;rounded=0;fontFamily=Helvetica;fontColor=#6C7592;fontSize=17;" parent="xXRnHA4H-zm9zhgyCjYD-0" vertex="1">
          <mxGeometry x="200" y="356.734693877551" width="170" height="18.775510204081634" as="geometry" />
        </mxCell>
        <mxCell id="xXRnHA4H-zm9zhgyCjYD-26" value="Paul Stoopack, MD" style="text;html=1;strokeColor=none;fillColor=none;align=left;verticalAlign=middle;whiteSpace=wrap;rounded=0;fontFamily=Helvetica;fontColor=#6C7592;fontSize=17;" parent="xXRnHA4H-zm9zhgyCjYD-0" vertex="1">
          <mxGeometry x="200" y="384.8979591836735" width="170" height="18.775510204081634" as="geometry" />
        </mxCell>
        <mxCell id="xXRnHA4H-zm9zhgyCjYD-27" value="Director of Nursing:" style="text;html=1;strokeColor=none;fillColor=none;align=left;verticalAlign=middle;whiteSpace=wrap;rounded=0;fontFamily=Helvetica;fontColor=#6C7592;fontSize=17;" parent="xXRnHA4H-zm9zhgyCjYD-0" vertex="1">
          <mxGeometry x="42" y="413.06122448979596" width="170" height="18.775510204081634" as="geometry" />
        </mxCell>
        <mxCell id="xXRnHA4H-zm9zhgyCjYD-28" value="Yanara Reda" style="text;html=1;strokeColor=none;fillColor=none;align=left;verticalAlign=middle;whiteSpace=wrap;rounded=0;fontFamily=Helvetica;fontColor=#6C7592;fontSize=17;" parent="xXRnHA4H-zm9zhgyCjYD-0" vertex="1">
          <mxGeometry x="200" y="413.06122448979596" width="170" height="18.775510204081634" as="geometry" />
        </mxCell>
        <mxCell id="xXRnHA4H-zm9zhgyCjYD-29" value="" style="shape=image;verticalLabelPosition=bottom;labelBackgroundColor=#ffffff;verticalAlign=top;aspect=fixed;imageAspect=0;image=data:image/png,iVBORw0KGgoAAAANSUhEUgAAABEAAAAOCAYAAADJ7fe0AAAA60lEQVQ4Ea3TsUoDQRDG8XsM2zxGWh/hXsEyZcoQrjHYWKRKlZDKSq6wCNjEzkIE08XKYJU0QooUSwjyk8udcB6eELmFhR2Y/c833+xGGljRbMpZj+jU3af7lCuI4lMvl/OHbBBdDv6hogC1bwkZxIF0cjqo85ADsoaiixHLwOqRdllq3XlAuia805kU7Rw9SRi/EdZ0r+pVnU9ZHVje08qKfHtSNja+Y7tndlOZWJ/eM2HHeFQq8hskG3NryMuOzYI4yeP5B9vXPP7xFOogx6SE6wXhE3vmaSG/6tOfkGpyXdwopJFn38D/8wUzf7n47vDmgAAAAABJRU5ErkJggg==;" parent="xXRnHA4H-zm9zhgyCjYD-0" vertex="1">
          <mxGeometry x="297" y="106.08163265306123" width="15.959183673469388" height="13.142857142857144" as="geometry" />
        </mxCell>
        <mxCell id="xXRnHA4H-zm9zhgyCjYD-30" value="" style="shape=image;verticalLabelPosition=bottom;labelBackgroundColor=#ffffff;verticalAlign=top;aspect=fixed;imageAspect=0;image=data:image/png,iVBORw0KGgoAAAANSUhEUgAAABEAAAAOCAYAAADJ7fe0AAAA60lEQVQ4Ea3TsUoDQRDG8XsM2zxGWh/hXsEyZcoQrjHYWKRKlZDKSq6wCNjEzkIE08XKYJU0QooUSwjyk8udcB6eELmFhR2Y/c833+xGGljRbMpZj+jU3af7lCuI4lMvl/OHbBBdDv6hogC1bwkZxIF0cjqo85ADsoaiixHLwOqRdllq3XlAuia805kU7Rw9SRi/EdZ0r+pVnU9ZHVje08qKfHtSNja+Y7tndlOZWJ/eM2HHeFQq8hskG3NryMuOzYI4yeP5B9vXPP7xFOogx6SE6wXhE3vmaSG/6tOfkGpyXdwopJFn38D/8wUzf7n47vDmgAAAAABJRU5ErkJggg==;" parent="xXRnHA4H-zm9zhgyCjYD-0" vertex="1">
          <mxGeometry x="340" y="134.24489795918367" width="15.959183673469388" height="13.142857142857144" as="geometry" />
        </mxCell>
        <mxCell id="xXRnHA4H-zm9zhgyCjYD-31" value="" style="shape=image;verticalLabelPosition=bottom;labelBackgroundColor=#ffffff;verticalAlign=top;aspect=fixed;imageAspect=0;image=data:image/png,iVBORw0KGgoAAAANSUhEUgAAABEAAAAOCAYAAADJ7fe0AAAA60lEQVQ4Ea3TsUoDQRDG8XsM2zxGWh/hXsEyZcoQrjHYWKRKlZDKSq6wCNjEzkIE08XKYJU0QooUSwjyk8udcB6eELmFhR2Y/c833+xGGljRbMpZj+jU3af7lCuI4lMvl/OHbBBdDv6hogC1bwkZxIF0cjqo85ADsoaiixHLwOqRdllq3XlAuia805kU7Rw9SRi/EdZ0r+pVnU9ZHVje08qKfHtSNja+Y7tndlOZWJ/eM2HHeFQq8hskG3NryMuOzYI4yeP5B9vXPP7xFOogx6SE6wXhE3vmaSG/6tOfkGpyXdwopJFn38D/8wUzf7n47vDmgAAAAABJRU5ErkJggg==;" parent="xXRnHA4H-zm9zhgyCjYD-0" vertex="1">
          <mxGeometry x="305" y="162.40816326530614" width="15.959183673469388" height="13.142857142857144" as="geometry" />
        </mxCell>
        <mxCell id="xXRnHA4H-zm9zhgyCjYD-32" value="" style="shape=image;verticalLabelPosition=bottom;labelBackgroundColor=#ffffff;verticalAlign=top;aspect=fixed;imageAspect=0;image=data:image/png,iVBORw0KGgoAAAANSUhEUgAAABEAAAAOCAYAAADJ7fe0AAAA60lEQVQ4Ea3TsUoDQRDG8XsM2zxGWh/hXsEyZcoQrjHYWKRKlZDKSq6wCNjEzkIE08XKYJU0QooUSwjyk8udcB6eELmFhR2Y/c833+xGGljRbMpZj+jU3af7lCuI4lMvl/OHbBBdDv6hogC1bwkZxIF0cjqo85ADsoaiixHLwOqRdllq3XlAuia805kU7Rw9SRi/EdZ0r+pVnU9ZHVje08qKfHtSNja+Y7tndlOZWJ/eM2HHeFQq8hskG3NryMuOzYI4yeP5B9vXPP7xFOogx6SE6wXhE3vmaSG/6tOfkGpyXdwopJFn38D/8wUzf7n47vDmgAAAAABJRU5ErkJggg==;" parent="xXRnHA4H-zm9zhgyCjYD-0" vertex="1">
          <mxGeometry x="323" y="190.57142857142858" width="15.959183673469388" height="13.142857142857144" as="geometry" />
        </mxCell>
        <mxCell id="xXRnHA4H-zm9zhgyCjYD-33" value="" style="shape=image;verticalLabelPosition=bottom;labelBackgroundColor=#ffffff;verticalAlign=top;aspect=fixed;imageAspect=0;image=data:image/png,iVBORw0KGgoAAAANSUhEUgAAABEAAAAOCAYAAADJ7fe0AAAA60lEQVQ4Ea3TsUoDQRDG8XsM2zxGWh/hXsEyZcoQrjHYWKRKlZDKSq6wCNjEzkIE08XKYJU0QooUSwjyk8udcB6eELmFhR2Y/c833+xGGljRbMpZj+jU3af7lCuI4lMvl/OHbBBdDv6hogC1bwkZxIF0cjqo85ADsoaiixHLwOqRdllq3XlAuia805kU7Rw9SRi/EdZ0r+pVnU9ZHVje08qKfHtSNja+Y7tndlOZWJ/eM2HHeFQq8hskG3NryMuOzYI4yeP5B9vXPP7xFOogx6SE6wXhE3vmaSG/6tOfkGpyXdwopJFn38D/8wUzf7n47vDmgAAAAABJRU5ErkJggg==;" parent="xXRnHA4H-zm9zhgyCjYD-0" vertex="1">
          <mxGeometry x="330" y="218.73469387755102" width="15.959183673469388" height="13.142857142857144" as="geometry" />
        </mxCell>
        <mxCell id="xXRnHA4H-zm9zhgyCjYD-34" value="" style="shape=image;verticalLabelPosition=bottom;labelBackgroundColor=#ffffff;verticalAlign=top;aspect=fixed;imageAspect=0;image=data:image/png,iVBORw0KGgoAAAANSUhEUgAAABEAAAAOCAYAAADJ7fe0AAAA60lEQVQ4Ea3TsUoDQRDG8XsM2zxGWh/hXsEyZcoQrjHYWKRKlZDKSq6wCNjEzkIE08XKYJU0QooUSwjyk8udcB6eELmFhR2Y/c833+xGGljRbMpZj+jU3af7lCuI4lMvl/OHbBBdDv6hogC1bwkZxIF0cjqo85ADsoaiixHLwOqRdllq3XlAuia805kU7Rw9SRi/EdZ0r+pVnU9ZHVje08qKfHtSNja+Y7tndlOZWJ/eM2HHeFQq8hskG3NryMuOzYI4yeP5B9vXPP7xFOogx6SE6wXhE3vmaSG/6tOfkGpyXdwopJFn38D/8wUzf7n47vDmgAAAAABJRU5ErkJggg==;" parent="xXRnHA4H-zm9zhgyCjYD-0" vertex="1">
          <mxGeometry x="340" y="275.0612244897959" width="15.959183673469388" height="13.142857142857144" as="geometry" />
        </mxCell>
        <mxCell id="xXRnHA4H-zm9zhgyCjYD-35" value="" style="shape=image;verticalLabelPosition=bottom;labelBackgroundColor=#ffffff;verticalAlign=top;aspect=fixed;imageAspect=0;image=data:image/png,iVBORw0KGgoAAAANSUhEUgAAABEAAAAOCAYAAADJ7fe0AAAA60lEQVQ4Ea3TsUoDQRDG8XsM2zxGWh/hXsEyZcoQrjHYWKRKlZDKSq6wCNjEzkIE08XKYJU0QooUSwjyk8udcB6eELmFhR2Y/c833+xGGljRbMpZj+jU3af7lCuI4lMvl/OHbBBdDv6hogC1bwkZxIF0cjqo85ADsoaiixHLwOqRdllq3XlAuia805kU7Rw9SRi/EdZ0r+pVnU9ZHVje08qKfHtSNja+Y7tndlOZWJ/eM2HHeFQq8hskG3NryMuOzYI4yeP5B9vXPP7xFOogx6SE6wXhE3vmaSG/6tOfkGpyXdwopJFn38D/8wUzf7n47vDmgAAAAABJRU5ErkJggg==;" parent="xXRnHA4H-zm9zhgyCjYD-0" vertex="1">
          <mxGeometry x="288" y="303.2244897959184" width="15.959183673469388" height="13.142857142857144" as="geometry" />
        </mxCell>
        <mxCell id="xXRnHA4H-zm9zhgyCjYD-36" value="" style="shape=image;verticalLabelPosition=bottom;labelBackgroundColor=#ffffff;verticalAlign=top;aspect=fixed;imageAspect=0;image=data:image/png,iVBORw0KGgoAAAANSUhEUgAAABEAAAAOCAYAAADJ7fe0AAAA60lEQVQ4Ea3TsUoDQRDG8XsM2zxGWh/hXsEyZcoQrjHYWKRKlZDKSq6wCNjEzkIE08XKYJU0QooUSwjyk8udcB6eELmFhR2Y/c833+xGGljRbMpZj+jU3af7lCuI4lMvl/OHbBBdDv6hogC1bwkZxIF0cjqo85ADsoaiixHLwOqRdllq3XlAuia805kU7Rw9SRi/EdZ0r+pVnU9ZHVje08qKfHtSNja+Y7tndlOZWJ/eM2HHeFQq8hskG3NryMuOzYI4yeP5B9vXPP7xFOogx6SE6wXhE3vmaSG/6tOfkGpyXdwopJFn38D/8wUzf7n47vDmgAAAAABJRU5ErkJggg==;" parent="xXRnHA4H-zm9zhgyCjYD-0" vertex="1">
          <mxGeometry x="347" y="331.38775510204084" width="15.959183673469388" height="13.142857142857144" as="geometry" />
        </mxCell>
        <mxCell id="xXRnHA4H-zm9zhgyCjYD-37" value="" style="shape=image;verticalLabelPosition=bottom;labelBackgroundColor=#ffffff;verticalAlign=top;aspect=fixed;imageAspect=0;image=data:image/png,iVBORw0KGgoAAAANSUhEUgAAABEAAAAOCAYAAADJ7fe0AAAA60lEQVQ4Ea3TsUoDQRDG8XsM2zxGWh/hXsEyZcoQrjHYWKRKlZDKSq6wCNjEzkIE08XKYJU0QooUSwjyk8udcB6eELmFhR2Y/c833+xGGljRbMpZj+jU3af7lCuI4lMvl/OHbBBdDv6hogC1bwkZxIF0cjqo85ADsoaiixHLwOqRdllq3XlAuia805kU7Rw9SRi/EdZ0r+pVnU9ZHVje08qKfHtSNja+Y7tndlOZWJ/eM2HHeFQq8hskG3NryMuOzYI4yeP5B9vXPP7xFOogx6SE6wXhE3vmaSG/6tOfkGpyXdwopJFn38D/8wUzf7n47vDmgAAAAABJRU5ErkJggg==;" parent="xXRnHA4H-zm9zhgyCjYD-0" vertex="1">
          <mxGeometry x="322" y="359.55102040816325" width="15.959183673469388" height="13.142857142857144" as="geometry" />
        </mxCell>
        <mxCell id="xXRnHA4H-zm9zhgyCjYD-38" value="" style="shape=image;verticalLabelPosition=bottom;labelBackgroundColor=#ffffff;verticalAlign=top;aspect=fixed;imageAspect=0;image=data:image/png,iVBORw0KGgoAAAANSUhEUgAAABEAAAAOCAYAAADJ7fe0AAAA60lEQVQ4Ea3TsUoDQRDG8XsM2zxGWh/hXsEyZcoQrjHYWKRKlZDKSq6wCNjEzkIE08XKYJU0QooUSwjyk8udcB6eELmFhR2Y/c833+xGGljRbMpZj+jU3af7lCuI4lMvl/OHbBBdDv6hogC1bwkZxIF0cjqo85ADsoaiixHLwOqRdllq3XlAuia805kU7Rw9SRi/EdZ0r+pVnU9ZHVje08qKfHtSNja+Y7tndlOZWJ/eM2HHeFQq8hskG3NryMuOzYI4yeP5B9vXPP7xFOogx6SE6wXhE3vmaSG/6tOfkGpyXdwopJFn38D/8wUzf7n47vDmgAAAAABJRU5ErkJggg==;" parent="xXRnHA4H-zm9zhgyCjYD-0" vertex="1">
          <mxGeometry x="353" y="387.7142857142857" width="15.959183673469388" height="13.142857142857144" as="geometry" />
        </mxCell>
        <mxCell id="xXRnHA4H-zm9zhgyCjYD-39" value="" style="shape=image;verticalLabelPosition=bottom;labelBackgroundColor=#ffffff;verticalAlign=top;aspect=fixed;imageAspect=0;image=data:image/png,iVBORw0KGgoAAAANSUhEUgAAABEAAAAOCAYAAADJ7fe0AAAA60lEQVQ4Ea3TsUoDQRDG8XsM2zxGWh/hXsEyZcoQrjHYWKRKlZDKSq6wCNjEzkIE08XKYJU0QooUSwjyk8udcB6eELmFhR2Y/c833+xGGljRbMpZj+jU3af7lCuI4lMvl/OHbBBdDv6hogC1bwkZxIF0cjqo85ADsoaiixHLwOqRdllq3XlAuia805kU7Rw9SRi/EdZ0r+pVnU9ZHVje08qKfHtSNja+Y7tndlOZWJ/eM2HHeFQq8hskG3NryMuOzYI4yeP5B9vXPP7xFOogx6SE6wXhE3vmaSG/6tOfkGpyXdwopJFn38D/8wUzf7n47vDmgAAAAABJRU5ErkJggg==;" parent="xXRnHA4H-zm9zhgyCjYD-0" vertex="1">
          <mxGeometry x="313" y="415.8775510204082" width="15.959183673469388" height="13.142857142857144" as="geometry" />
        </mxCell>
      </root>
    </mxGraphModel>
  </diagram>
  <diagram id="UNF9l3r9gMsRZYSsfFWD" name="Misc Icons">
    <mxGraphModel dx="1422" dy="762" grid="1" gridSize="10" guides="1" tooltips="1" connect="1" arrows="1" fold="1" page="1" pageScale="1" pageWidth="850" pageHeight="1100" math="0" shadow="0">
      <root>
        <mxCell id="PhOnws52DlR69rRVB9m6-0" />
        <mxCell id="PhOnws52DlR69rRVB9m6-1" parent="PhOnws52DlR69rRVB9m6-0" />
        <mxCell id="FOhMsPr1CskhBmo8x2WC-0" value="" style="shape=image;verticalLabelPosition=bottom;labelBackgroundColor=#ffffff;verticalAlign=top;aspect=fixed;imageAspect=0;image=data:image/png,iVBORw0KGgoAAAANSUhEUgAAAB4AAAAcCAYAAAB2+A+pAAABOUlEQVRIDe1WQQsBQRT2g10cXJRQDhw47EVxoBz2oBycVpubXKRIDpSzkhSKsm2fdha9zOzuLNZu2Jrt1c6bb773vve1MYT0xELCRZSBDcw7ChLJNOKeK4d8Z4mzRBklGM9Q8wSkl1Ix/krgRLaIVDYnKL8vxgY2iz7aagsNblWREZS6NgUwVQXAZZS4M6xzNfQW23v/WY/Po6bgANo3Ehc0zPcHHA0Axgm7/RLtAvkuuCQVZWVkJcIep5WufAw4r6+fBL4yci61O/uXgZ3FFTAw7Zuf+GXGfsDo3qgCqxiaV98zJ5xlZrq2Mq0dq275YSLccz0YU/fhvfqWzIC5UZTLZQbCz7H7rQNk7D4SVCx+41u1HBj/HnBoPZZT5l/VMgqPhqp3g/qD7QU3TsrgwLxY4veW7Xv76wKbDNBGZ+QR2AAAAABJRU5ErkJggg==;" parent="PhOnws52DlR69rRVB9m6-1" vertex="1">
          <mxGeometry x="10" y="18" width="30" height="28" as="geometry" />
        </mxCell>
        <mxCell id="lvNATd1YeoiRva3MpKf5-0" value="" style="shape=image;verticalLabelPosition=bottom;labelBackgroundColor=#ffffff;verticalAlign=top;aspect=fixed;imageAspect=0;image=data:image/png,iVBORw0KGgoAAAANSUhEUgAAACcAAAAmCAYAAABH/4KQAAAB40lEQVRYCe3Yv2vCQBTA8fwZrv4J/RcyOjrmX3B0DMGlHQTH0qlrJ2e3Kk6KFISOIhU3S5fiUKRD+ZbTnr3E/Lgkd1FoA/IIickn7949Lzpc8OZcsI1/XNHROWvmVlNodMDpQHt6+ghnw63GUPfBUT7eYxh4FlwcTCJVYPW4D2gH4YxJmIzeAHYQnq27NbS76V+UF9CKAQw/w0Ml9nYLaGQAewsVt4VWxhe0QEoNuf1DBgRoNYLaDUxESjSAzZGC24wNZsyHE5hEawJDmdsIqbxAyZgIk9fNAJ7UXBQn0lp22w+lBEVjAjB2tprGpcIkVAWu4f4pnI5jKzGJ04LFAMM0dUJEaq7osOaC/QBbsyjrsG80c0VgXkptG8OZhoncGcHZgBnB2YKVxtmElcLZhhXGlYXNRzB8FbdP3wpNiOucqxe1XUz6UPNBp4/mx32BL7u7RoyDiQWGHdwbNDVQAqDC3meHjMmVjx3cEq40cCpMVFaR3+78w/qcve6LwirDRTMgh0nGOFhlOJbgitkagNsF9w56fbgV7eEluTVEH8pOzSXfP/XI38HJGrIV8w2r4VfDrIfyxqlVsD94bCVYeKlOBAYw2ObBibdw039HxDTrehce1tkwccZv5vTOr/Ssi8Z9A3eUzdGXStlVAAAAAElFTkSuQmCC;" parent="PhOnws52DlR69rRVB9m6-1" vertex="1">
          <mxGeometry x="10" y="60" width="39" height="38" as="geometry" />
        </mxCell>
        <mxCell id="h5OyMiznDulvEK-cdUcC-0" value="" style="shape=image;verticalLabelPosition=bottom;labelBackgroundColor=#ffffff;verticalAlign=top;aspect=fixed;imageAspect=0;image=data:image/png,iVBORw0KGgoAAAANSUhEUgAAABkAAAAaCAYAAABCfffNAAABrUlEQVRIDb2Wz2vCMBTH/YN38VBkA/cLlQ3RMWET3EFBpOwH9eKhIF6GyGAIK3OIwhhDZmGI6HaQtch3aENN2toma1khkLwk309e8t6jMfzDF4uaYcxe0aoWEE8kEU/J6EyByCCGruHm4hRxKYkdumXUsBAT82EbV9kjVpiGSPIfIUsTereB3LHj1Iw4mStrghBziqemjNQuh/gamIfyzvsmX2N0lBL2ErziZN15G3MEQIzJC9RVpHhdQ6AtjVrfil3P6JqPuqjl/B6Tw6OMihHJDwpiYvKsopgKKU48LHZNOwUtiP6AAk+kBF4R8XC/jt7SZqyi6xNqlsN9XoCUxMn994ZgPfwAFdGo8QMmqnj8YRhWngzu0j4ZK+blQWPMEjYhbGIy1NBq3KIib2/Fs6DDXKI1czHEMl5vFnw9lq4HbsLGE885l9Efkofy4dqyNlB54r2AtvpCyhoMejHVjwiSRm1IqTq60UBIIXRo28NIIHQJsZWpTngIVQgpXaYbGpJrsyWEUScDIQj6dUh0SXEUQi/AyiYGwQI9hfzuHJagvC226TJ2QQizl3vwC/aQgNbfP9u8AAAAAElFTkSuQmCC;" parent="PhOnws52DlR69rRVB9m6-1" vertex="1">
          <mxGeometry x="15" y="110" width="25" height="26" as="geometry" />
        </mxCell>
        <mxCell id="h5OyMiznDulvEK-cdUcC-1" value="" style="shape=image;verticalLabelPosition=bottom;labelBackgroundColor=#ffffff;verticalAlign=top;aspect=fixed;imageAspect=0;image=data:image/png,iVBORw0KGgoAAAANSUhEUgAAACEAAAAXCAYAAACFxybfAAACTElEQVRIDdWW0WvaQBzH/YN9yUOQhYZViSVSutIM0jEfovQhUIst4oOQPhQRGUipMGV0tApKKxtSECFCQ/mOy12SSxpdhDBcQHJeLnef+/5+v+8lgx24MjvAgP8Ewh6iUpCRFb1fHqr1jFcA9o8mlA9eP3cv1NC3k2u8WQl7iPI+N7lYxGnvxZ193juD6IPxY1h730wMsh4iCpAroXK3BOBgaukQNgF4zxKCZGaWxklNdmGiDyDUn9NRH68ArDBq6JHxMrJ7JUh7MWqIMhTrN4Ahyh4Yu9N+GrJEEGqbKLBC3yy9BzhuYUTi/3SNj5GFSB6lBKGh9YtspvYOQDi5weyNZGg0eQNV0oX4eRlKRNG4xZwAEIbvNUi5YOGgklJTQoYXjkFdh6RoOGrew63A2TecWxO3/frUgRaqJAqVkhIysiQxH0heBNfioQWV7V780sHUIZJMUD/Jh8KWHgRLOOHgK8qmiaOD8EKu/AUTXWIhb0sMLj75IKlD8LGObfulDMx7ppsn/x7CVawIrU1tneTJeTexTxjo2sDoivhAjFnF1H+sEtw4qRpUj2dW0tUEsG+h+f5Bc4yZVRFqtQZNJRlNIRbDa5Q/x5gTt9DfQMT6hGUyc0zVQKWqu6VOwxSC8Go8D6Xx6J6Q9PEam04IIl48MggH9w0tdN6EINiojbdZxwgZ1SYFxEONjt3iOF9/ikawFnfrXdGHOmY27jicmpGJYv4mhiDv2uMbnCrUIwTlDK3xEtO24ZaicNjEYIsPGZ5lKwj+xTTbOwHxB846o1NlRbbAAAAAAElFTkSuQmCC;" parent="PhOnws52DlR69rRVB9m6-1" vertex="1">
          <mxGeometry x="13" y="150" width="33" height="23" as="geometry" />
        </mxCell>
        <mxCell id="h5OyMiznDulvEK-cdUcC-2" value="" style="shape=image;verticalLabelPosition=bottom;labelBackgroundColor=#ffffff;verticalAlign=top;aspect=fixed;imageAspect=0;image=data:image/png,iVBORw0KGgoAAAANSUhEUgAAABYAAAAdCAYAAACuc5z4AAABZ0lEQVRIDdXUz0sCQRjG8f2DvXQYpEDQ0EAED14KJRAkpA5e8mAHwSREkKgoCbsESrsk4XElRb7hj2GRfde0doIWhoFl9rPvvjPPWhi6LEMum+HpiE4lTzKeIKJiRFQClclzcTti8k1FwbDTJhefY/JQJ22cWbAuw26XwgZUv0yVurgBtgg/nacCK9Xock5x9izLAtyjGJU/fx1drSn3RNkPvzdIBvRVhDMNHIH+QxhTrQAMbR5g6rgt9sJIQPQuG4m0xn84+47bxLXp3T3QadaotPt8fPrlyahPq1qjPl/3YuNO/Ws8eGpTz6fFKO/F0xwkl0PtC6mMpsk17bU/3hJ2uxQPhQd2SaCKcVD2fkoWjGmd/h7VcT/ujBd9sXitonasTCPifFRjAFjOVVbsq/jQVgVkuXTAui+F1wZdTOHxX8KDavg9rryBxWzIdUAwdM+2nudBuRmujps/jaHc8SIdCuchxuAv22r1h/kzptIAAAAASUVORK5CYII=;" parent="PhOnws52DlR69rRVB9m6-1" vertex="1">
          <mxGeometry x="18.5" y="190" width="22" height="29" as="geometry" />
        </mxCell>
        <mxCell id="E5cCaiwiIBEPEdvK1Az--0" value="" style="shape=image;verticalLabelPosition=bottom;labelBackgroundColor=#ffffff;verticalAlign=top;aspect=fixed;imageAspect=0;image=data:image/png,iVBORw0KGgoAAAANSUhEUgAAAB4AAAAfCAYAAADwbH0HAAABR0lEQVRIDe2XPw/BQBjG7+P0C/gInTqZTBKTxGSxmVjEbDIZb8CgBmFsRG2dWIjFYBALAxLJI4TSunMtbY/QpOnl0tzv/fO879sSSLrIbtZCsalBoWoAtwZNr2G8EXtDcoEAXUbXK7AEcBKMpy7wyRkBPDywAO4Ax42JODm8Nw4bmN34o044njvAaXPBO9bT/tLMPoI5nkcDPsOrGB9u9kcHpiqK1t4mRwq+T+WPg98qJwBTI8lW9UlcVAU31KF1sT8YgEPVHxrqBPJ9C/PtpQdsF7D6BWiX/Hkx+gVxJVAesQfsblTxDPcP1jtY283OvVihrTPmMSMSvsGpwfOpNR9kntbvNQ3fA1ZkhVqhssR1FoqUcvKm2quIeE/f4uId5Hc/PVzZtRjOBz2jhhWaR+/GRcC/MOyUxJolNGbOzkds3yNeSAMfAQ0IS+emrhCtAAAAAElFTkSuQmCC;" parent="PhOnws52DlR69rRVB9m6-1" vertex="1">
          <mxGeometry x="10.5" y="230" width="30" height="31" as="geometry" />
        </mxCell>
        <mxCell id="E5cCaiwiIBEPEdvK1Az--1" value="" style="shape=image;verticalLabelPosition=bottom;labelBackgroundColor=#ffffff;verticalAlign=top;aspect=fixed;imageAspect=0;image=data:image/png,iVBORw0KGgoAAAANSUhEUgAAACoAAAAcCAYAAAAX4C3rAAABiElEQVRYCdXXvU7DMBAH8L4UM1OnTAyIB0AMvAErLNl5EUQegYmNAdEFKFIVEYQQSwQVkqM/cuJrPvAldpzEpFJ1HZL6Z5/vEi8wk8/C2ClSfEYh1kGAp73luN/gGJvoEd+i1JlBRYK3i6NxcZrJP1/eYaus3VBPyCJrB4hXhbQd6hVZbK91lORSHvoPkHJV26F9kIch3j+A7PUaL0um2PZPEa9S4OsB8YlZUfJQkSA5M/uTXfUrJNWoFktIusgQq4f2Qcr0XBX7iAwy1rBNpLpwe3Pe2Un+Qnsi81VlIDk2UOmuzqI5EU1romzVoS5IGoTDVpo2WWurTfczsYQOgaRBGCwBZbRB1qr+5zbs3CeUBqPYgrVFjg+9T5FVl1H9FpuW1kVZacT5pT6f7BD7lEl5NlgxUYpcsBxSPqUGbU+O2Gkbvgt28kdoBWv9ojz5S4kLttFajPpuxz1leyKYLvZ53esY2BZvBpV4r1jTowitsies3eFuh53DcZmwHiN/uPOI0g09G+gvsKfEAKPbYJ8AAAAASUVORK5CYII=;" parent="PhOnws52DlR69rRVB9m6-1" vertex="1">
          <mxGeometry x="7" y="280" width="42" height="28" as="geometry" />
        </mxCell>
        <mxCell id="Zn7ysLx5VvSZFFzRu2Ft-0" value="" style="shape=image;verticalLabelPosition=bottom;labelBackgroundColor=#ffffff;verticalAlign=top;aspect=fixed;imageAspect=0;image=data:image/png,iVBORw0KGgoAAAANSUhEUgAAABMAAAAUCAYAAABvVQZ0AAABqklEQVQ4Ea2UP2vCQBjG7+N0y+Q3qNNNTk6ubpLJD1AXcSgIHcQPUBSjSBQcAg7iEDoFh1YElxKpg7agaekFCk+53KVJzkShbSCQe+99f3neP3cEFx528HB883A8+Bc8AZLmsVuaaIyKyHXyuEq8FHR0i/5ymxamwPYPaA1pBOgWURhUUZvWURmUQLsRPDdsw94nmZEy10BZqggc3fS02Ev8hzr6bgQUsI0pQRQV+znaPfPl2lVZBh39jXAkwBZjk6dGUbbTa5HFdG0dWicPzTSxA0DYoi4M4ymOWVGq/d0D++LGV1hjIaS28EFmE17UAlorNSJjLWtLLQeMu6zauOa1nsxBmvyj18ZTRmzCHGsST80N1D2i1eOC7kCCDk7m4i8ykn0mEGKRAN1j7YU+PkR2uoRZjtzxsJ7r0IwbWLJDwUYCZECdGsfiykJYqOzDQdOQg2nUMeNDeQEExJSd1Mxz0PgBllCQg6yZp4pEOrGapXYzDgzmKAukdDNzziQwWxHXpczZ2RPg+2DpR1T0RT0BgfX/zqYoY7xrf7s1JA//dp+FQAC/vWm/AUVO97xVB2fNAAAAAElFTkSuQmCC;" parent="PhOnws52DlR69rRVB9m6-1" vertex="1">
          <mxGeometry x="18" y="320" width="19" height="20" as="geometry" />
        </mxCell>
        <mxCell id="yCK23JtGdnUjNvX8T4XC-0" value="" style="shape=image;verticalLabelPosition=bottom;labelBackgroundColor=#ffffff;verticalAlign=top;aspect=fixed;imageAspect=0;image=data:image/png,iVBORw0KGgoAAAANSUhEUgAAABQAAAAVCAYAAABG1c6oAAABiUlEQVQ4Ea2VMWvCQBiG/VOdnTIFhA7ipL9AEIRs7rp0sUv9DZ0iCC5OLjplapaahp6StDatraGWA8NbPu+SXKrFFi4Qcrm899z3vffdpYQ/XHwbY7eJsdtyJGf0pd++x44NZtWwuDB+3CY86wqBE2J/YvARMInmWDbNHGLU4DUssJsu/EYdnqFM0BzgJSpSC8A9u4VflgNIzPjJKHigTFpuIWA5NAMmgS1hJvzh40lQPky03oeWyISggeiTwBBhm9IkWHjWeBX8MWwJaNtGDOAA5LOu6OxM8JmpY2zG9pFH5HEwvsdXpnvFU0cEw2acgBzrHvl2iZWbqRCP5MzVLtbS+CSaglVJa8IfhZk4cQfwqBp6UwI6WNJCVAZ4yyRAPtjAgqDuRMLke2F177CqGFiUr1HCs40HSecKkJoFaFqPSsS5PM2ypQD7Tv5dae3TdA7AesEWRYaoT1aowN4UeiLU7qH+VQY01yFZq3mnEFLzXhYFoPW0SWtK63mYQump7cRWoWn7P/+Ub7tXqg4pdsJpAAAAAElFTkSuQmCC;" parent="PhOnws52DlR69rRVB9m6-1" vertex="1">
          <mxGeometry x="15.5" y="360" width="20" height="21" as="geometry" />
        </mxCell>
        <mxCell id="O1PH_NWaf3JiSDn6ebQ4-0" value="" style="shape=image;verticalLabelPosition=bottom;labelBackgroundColor=#ffffff;verticalAlign=top;aspect=fixed;imageAspect=0;image=data:image/png,iVBORw0KGgoAAAANSUhEUgAAABEAAAAOCAYAAADJ7fe0AAAA60lEQVQ4Ea3TsUoDQRDG8XsM2zxGWh/hXsEyZcoQrjHYWKRKlZDKSq6wCNjEzkIE08XKYJU0QooUSwjyk8udcB6eELmFhR2Y/c833+xGGljRbMpZj+jU3af7lCuI4lMvl/OHbBBdDv6hogC1bwkZxIF0cjqo85ADsoaiixHLwOqRdllq3XlAuia805kU7Rw9SRi/EdZ0r+pVnU9ZHVje08qKfHtSNja+Y7tndlOZWJ/eM2HHeFQq8hskG3NryMuOzYI4yeP5B9vXPP7xFOogx6SE6wXhE3vmaSG/6tOfkGpyXdwopJFn38D/8wUzf7n47vDmgAAAAABJRU5ErkJggg==;" parent="PhOnws52DlR69rRVB9m6-1" vertex="1">
          <mxGeometry x="16.5" y="390" width="17" height="14" as="geometry" />
        </mxCell>
        <mxCell id="VpUqDWHCe-Oo-LBUCy5N-0" value="" style="shape=image;verticalLabelPosition=bottom;labelBackgroundColor=#ffffff;verticalAlign=top;aspect=fixed;imageAspect=0;image=data:image/png,iVBORw0KGgoAAAANSUhEUgAAABEAAAATCAYAAAB2pebxAAAAiklEQVQ4EWP4TwXAQAUz/mMa8vP//5bW//8ZqpFw6///537ito7h+QEkxcgaCbCjDiAMpY4hCPPIZ4HD5Pk+0rwUtA/VQtoYcuz3///V0EDFxSbokmP///9vgRmCgz1qCCT6kcOKTmFCjShGyb04MiFW7/x/9f9/cTtxSV+i/f//ra+wJHtUIdJ5AJhTK9F+uGtOAAAAAElFTkSuQmCC;" parent="PhOnws52DlR69rRVB9m6-1" vertex="1">
          <mxGeometry x="16.5" y="420" width="17" height="19" as="geometry" />
        </mxCell>
      </root>
    </mxGraphModel>
  </diagram>
</mxfile>
